<?xml version="1.0" encoding="UTF-8"?>
<svg version="1.1" xmlns="http://www.w3.org/2000/svg" width="681" height="251">
<path d="M0 0 C224.73 0 449.46 0 681 0 C681 82.83 681 165.66 681 251 C456.27 251 231.54 251 0 251 C0 168.17 0 85.34 0 0 Z " fill="#F9F9FA" transform="translate(0,0)"/>
<path d="M0 0 C1.175625 0.020625 2.35125 0.04125 3.5625 0.0625 C4.2225 0.0625 4.8825 0.0625 5.5625 0.0625 C8.89583333 0.0625 12.22916667 0.0625 15.5625 0.0625 C15.62308594 1.33867187 15.68367188 2.61484375 15.74609375 3.9296875 C15.83049568 5.59897016 15.91514386 7.26824037 16 8.9375 C16.03931641 9.77925781 16.07863281 10.62101563 16.11914062 11.48828125 C16.16103516 12.29394531 16.20292969 13.09960938 16.24609375 13.9296875 C16.30108032 15.04512939 16.30108032 15.04512939 16.35717773 16.18310547 C16.46205865 18.15114312 16.46205865 18.15114312 17.5625 20.0625 C15.2525 20.0625 12.9425 20.0625 10.5625 20.0625 C10.8925 19.4025 11.2225 18.7425 11.5625 18.0625 C11.79422827 15.51634991 11.98144529 12.98853775 12.125 10.4375 C12.18977539 9.37789062 12.18977539 9.37789062 12.25585938 8.296875 C12.36194751 6.55231463 12.46272889 4.80743303 12.5625 3.0625 C10.9125 3.0625 9.2625 3.0625 7.5625 3.0625 C7.2325 4.3825 6.9025 5.7025 6.5625 7.0625 C7.8825 7.0625 9.2025 7.0625 10.5625 7.0625 C10.5625 7.7225 10.5625 8.3825 10.5625 9.0625 C9.2425 9.0625 7.9225 9.0625 6.5625 9.0625 C6.70357747 10.52130109 6.85052415 11.97953551 7 13.4375 C7.08121094 14.24960938 7.16242188 15.06171875 7.24609375 15.8984375 C7.45340114 18.10522805 7.45340114 18.10522805 8.5625 20.0625 C6.2525 20.0625 3.9425 20.0625 1.5625 20.0625 C1.8925 19.4025 2.2225 18.7425 2.5625 18.0625 C2.78717831 16.52581135 2.97046805 14.98281946 3.125 13.4375 C3.20878906 12.62023437 3.29257812 11.80296875 3.37890625 10.9609375 C3.46978516 10.02121094 3.46978516 10.02121094 3.5625 9.0625 C1.5825 9.0625 -0.3975 9.0625 -2.4375 9.0625 C-2.29642253 10.52130109 -2.14947585 11.97953551 -2 13.4375 C-1.87818359 14.65566406 -1.87818359 14.65566406 -1.75390625 15.8984375 C-1.54659886 18.10522805 -1.54659886 18.10522805 -0.4375 20.0625 C-2.37486701 20.23070551 -4.31239906 20.39701095 -6.25 20.5625 C-7.32894531 20.6553125 -8.40789062 20.748125 -9.51953125 20.84375 C-13.40167079 21.13478054 -16.64552581 20.88238631 -20.4375 20.0625 C-20.7675 18.7425 -21.0975 17.4225 -21.4375 16.0625 C-16.8125 12.0625 -16.8125 12.0625 -13.4375 12.0625 C-14.4275 11.0725 -15.4175 10.0825 -16.4375 9.0625 C-16.7675 9.7225 -17.0975 10.3825 -17.4375 11.0625 C-20.0775 11.0625 -22.7175 11.0625 -25.4375 11.0625 C-25.7675 13.7025 -26.0975 16.3425 -26.4375 19.0625 C-25.7775 19.3925 -25.1175 19.7225 -24.4375 20.0625 C-27.0775 20.0625 -29.7175 20.0625 -32.4375 20.0625 C-31.7775 19.7325 -31.1175 19.4025 -30.4375 19.0625 C-30.57857747 17.60369891 -30.72552415 16.14546449 -30.875 14.6875 C-30.95621094 13.87539062 -31.03742188 13.06328125 -31.12109375 12.2265625 C-31.32840114 10.01977195 -31.32840114 10.01977195 -32.4375 8.0625 C-25.50780839 6.74255874 -18.47153491 6.74191396 -11.4375 7.0625 C-10.4375 8.0625 -10.4375 8.0625 -10.33984375 10.34765625 C-10.35144531 11.26417969 -10.36304688 12.18070313 -10.375 13.125 C-10.38402344 14.04410156 -10.39304687 14.96320313 -10.40234375 15.91015625 C-10.41394531 16.62042969 -10.42554688 17.33070313 -10.4375 18.0625 C-9.1175 18.3925 -7.7975 18.7225 -6.4375 19.0625 C-6.4375 15.7625 -6.4375 12.4625 -6.4375 9.0625 C-7.0975 9.0625 -7.7575 9.0625 -8.4375 9.0625 C-8.4375 8.4025 -8.4375 7.7425 -8.4375 7.0625 C-7.7775 6.7325 -7.1175 6.4025 -6.4375 6.0625 C-5.73538106 4.41045544 -5.06778587 2.74326231 -4.4375 1.0625 C-3.4375 0.0625 -3.4375 0.0625 0 0 Z " fill="#000000" transform="translate(306.4375,139.9375)"/>
<path d="M0 0 C0 0.99 0 1.98 0 3 C2.97 3 5.94 3 9 3 C9.33 6.63 9.66 10.26 10 14 C10.66 14 11.32 14 12 14 C12.33 11.03 12.66 8.06 13 5 C12.34 5 11.68 5 11 5 C11 4.34 11 3.68 11 3 C18.26 3 25.52 3 33 3 C34.87404046 7.68510114 35.19157797 10.11476189 35 15 C35.66 15.33 36.32 15.66 37 16 C34.36 16 31.72 16 29 16 C29.33 15.34 29.66 14.68 30 14 C30.0689472 12.62657169 30.08467708 11.24997898 30.0625 9.875 C30.041875 8.59625 30.02125 7.3175 30 6 C29.01 6 28.02 6 27 6 C26.67 8.97 26.34 11.94 26 15 C26.66 15.33 27.32 15.66 28 16 C25.36 16 22.72 16 20 16 C20.33 15.34 20.66 14.68 21 14 C21.0689472 12.62657169 21.08467708 11.24997898 21.0625 9.875 C21.041875 8.59625 21.02125 7.3175 21 6 C20.01 6 19.02 6 18 6 C17.67 8.97 17.34 11.94 17 15 C17.66 15.33 18.32 15.66 19 16 C15.5430244 16.25417629 12.08471174 16.47407622 8.625 16.6875 C7.64015625 16.76033203 6.6553125 16.83316406 5.640625 16.90820312 C4.69960938 16.96298828 3.75859375 17.01777344 2.7890625 17.07421875 C1.91975098 17.13182373 1.05043945 17.18942871 0.15478516 17.2487793 C-0.55629395 17.16668213 -1.26737305 17.08458496 -2 17 C-4.12749429 13.80875856 -4.43555602 12.23928425 -4.8125 8.5 C-4.92207031 7.5409375 -5.03164063 6.581875 -5.14453125 5.59375 C-5 3 -5 3 -3.63671875 1.15625 C-2 0 -2 0 0 0 Z " fill="#000000" transform="translate(396,144)"/>
<path d="M0 0 C1.47668858 0.0133035 2.95331108 0.03716415 4.4296875 0.0703125 C5.18378906 0.07933594 5.93789062 0.08835937 6.71484375 0.09765625 C8.57826004 0.1212438 10.44151343 0.15711531 12.3046875 0.1953125 C12.6346875 4.1553125 12.9646875 8.1153125 13.3046875 12.1953125 C14.2946875 11.8653125 15.2846875 11.5353125 16.3046875 11.1953125 C16.3253125 9.9371875 16.3459375 8.6790625 16.3671875 7.3828125 C16.37878906 6.67511719 16.39039062 5.96742187 16.40234375 5.23828125 C16.38731967 2.99225789 16.38731967 2.99225789 15.3046875 0.1953125 C17.26272257 0.14142163 19.22117659 0.10257033 21.1796875 0.0703125 C22.81550781 0.03550781 22.81550781 0.03550781 24.484375 0 C27.3046875 0.1953125 27.3046875 0.1953125 29.3046875 2.1953125 C29.5 4.578125 29.5 4.578125 29.4296875 7.3203125 C29.41164062 8.23039062 29.39359375 9.14046875 29.375 10.078125 C29.35179687 10.77679688 29.32859375 11.47546875 29.3046875 12.1953125 C29.9646875 12.5253125 30.6246875 12.8553125 31.3046875 13.1953125 C28.9946875 13.1953125 26.6846875 13.1953125 24.3046875 13.1953125 C24.6346875 9.5653125 24.9646875 5.9353125 25.3046875 2.1953125 C23.9846875 2.1953125 22.6646875 2.1953125 21.3046875 2.1953125 C21.2776832 3.65354462 21.25828963 5.11191925 21.2421875 6.5703125 C21.23058594 7.38242188 21.21898438 8.19453125 21.20703125 9.03125 C21.16002416 11.24468392 21.16002416 11.24468392 22.3046875 13.1953125 C17.3546875 13.1953125 12.4046875 13.1953125 7.3046875 13.1953125 C7.6346875 12.5353125 7.9646875 11.8753125 8.3046875 11.1953125 C8.52936581 9.65862385 8.71265555 8.11563196 8.8671875 6.5703125 C8.95097656 5.75304687 9.03476563 4.93578125 9.12109375 4.09375 C9.18167969 3.46726562 9.24226563 2.84078125 9.3046875 2.1953125 C7.33064196 2.50890388 7.33064196 2.50890388 5.3046875 3.1953125 C4.13515334 5.61914327 4.13515334 5.61914327 3.3046875 8.1953125 C2.6446875 8.8553125 1.9846875 9.5153125 1.3046875 10.1953125 C2.9546875 11.1853125 4.6046875 12.1753125 6.3046875 13.1953125 C5.9921875 15.5703125 5.9921875 15.5703125 5.3046875 18.1953125 C1.125123 20.98168883 -0.84199927 19.99093762 -5.6953125 19.1953125 C-6.66453834 15.42610089 -6.50260245 12.96266558 -5.6953125 9.1953125 C-5.7159375 7.9784375 -5.7365625 6.7615625 -5.7578125 5.5078125 C-5.66682009 0.685215 -4.76259662 0.25172287 0 0 Z " fill="#121212" transform="translate(104.6953125,108.8046875)"/>
<path d="M0 0 C6.15234375 -0.09765625 6.15234375 -0.09765625 8 0 C9 1 9 1 9.09765625 3.28515625 C9.08605469 4.20167969 9.07445312 5.11820312 9.0625 6.0625 C9.05347656 6.98160156 9.04445312 7.90070313 9.03515625 8.84765625 C9.02355469 9.55792969 9.01195312 10.26820312 9 11 C10.32 11 11.64 11 13 11 C13 8.03 13 5.06 13 2 C12.34 2 11.68 2 11 2 C11 1.34 11 0.68 11 0 C12.98 0 14.96 0 17 0 C17.33 3.63 17.66 7.26 18 11 C18.66 11 19.32 11 20 11 C20.33 8.36 20.66 5.72 21 3 C20.34 3 19.68 3 19 3 C19.33 2.01 19.66 1.02 20 0 C27.59 0 35.18 0 43 0 C44.43445114 2.86890229 44.43073118 5.73804294 44.71875 8.90625 C44.892155 11.05443933 44.892155 11.05443933 46 13 C43.69 13 41.38 13 39 13 C39.33 12.34 39.66 11.68 40 11 C40.06950541 9.45976004 40.08452357 7.91665012 40.0625 6.375 C40.05347656 5.55773437 40.04445312 4.74046875 40.03515625 3.8984375 C40.02355469 3.27195312 40.01195312 2.64546875 40 2 C38.02 2.99 38.02 2.99 36 4 C35.73067479 8.65052872 35.73067479 8.65052872 37 13 C34.69 13 32.38 13 30 13 C30.33 12.34 30.66 11.68 31 11 C31.22467831 9.46331135 31.40796805 7.92031946 31.5625 6.375 C31.64628906 5.55773437 31.73007813 4.74046875 31.81640625 3.8984375 C31.90728516 2.95871094 31.90728516 2.95871094 32 2 C30.02 2.66 28.04 3.32 26 4 C24.95785309 8.61507774 24.95785309 8.61507774 26 13 C21.87536584 13.19622046 17.75028427 13.38050216 13.625 13.5625 C12.449375 13.61857422 11.27375 13.67464844 10.0625 13.73242188 C8.94101563 13.78076172 7.81953125 13.82910156 6.6640625 13.87890625 C5.62717285 13.9260376 4.5902832 13.97316895 3.52197266 14.02172852 C1 14 1 14 -1 13 C-1.3125 10.6875 -1.3125 10.6875 -1 8 C1.3832946 6.18116991 2.95818337 5 6 5 C6 4.01 6 3.02 6 2 C5.401875 2.33 4.80375 2.66 4.1875 3 C2 4 2 4 -1 4 C-0.67 2.68 -0.34 1.36 0 0 Z " fill="#000000" transform="translate(167,109)"/>
<path d="M0 0 C1.37478516 0.01740234 1.37478516 0.01740234 2.77734375 0.03515625 C3.69644531 0.04417969 4.61554688 0.05320313 5.5625 0.0625 C6.27277344 0.07410156 6.98304688 0.08570313 7.71484375 0.09765625 C7.71484375 1.41765625 7.71484375 2.73765625 7.71484375 4.09765625 C3.25984375 3.10765625 3.25984375 3.10765625 -1.28515625 2.09765625 C-1.28515625 3.74765625 -1.28515625 5.39765625 -1.28515625 7.09765625 C1.68484375 7.09765625 4.65484375 7.09765625 7.71484375 7.09765625 C8.04484375 10.72765625 8.37484375 14.35765625 8.71484375 18.09765625 C9.37484375 18.09765625 10.03484375 18.09765625 10.71484375 18.09765625 C11.04484375 15.12765625 11.37484375 12.15765625 11.71484375 9.09765625 C11.05484375 9.09765625 10.39484375 9.09765625 9.71484375 9.09765625 C9.71484375 8.43765625 9.71484375 7.77765625 9.71484375 7.09765625 C11.86061012 7.07079687 14.0064702 7.05132537 16.15234375 7.03515625 C17.34730469 7.02355469 18.54226562 7.01195312 19.7734375 7 C22.71484375 7.09765625 22.71484375 7.09765625 23.71484375 8.09765625 C23.9232339 9.73872867 24.082361 11.38621918 24.21484375 13.03515625 C24.46699318 16.7032309 24.46699318 16.7032309 25.71484375 20.09765625 C23.40484375 20.09765625 21.09484375 20.09765625 18.71484375 20.09765625 C19.04484375 19.43765625 19.37484375 18.77765625 19.71484375 18.09765625 C19.78379095 16.72422794 19.79952083 15.34763523 19.77734375 13.97265625 C19.75671875 12.69390625 19.73609375 11.41515625 19.71484375 10.09765625 C18.72484375 10.09765625 17.73484375 10.09765625 16.71484375 10.09765625 C15.34531702 12.8367097 15.58863014 15.06852957 15.71484375 18.09765625 C16.04484375 18.75765625 16.37484375 19.41765625 16.71484375 20.09765625 C12.09484375 20.09765625 7.47484375 20.09765625 2.71484375 20.09765625 C3.04484375 19.43765625 3.37484375 18.77765625 3.71484375 18.09765625 C3.78379095 16.72422794 3.79952083 15.34763523 3.77734375 13.97265625 C3.75671875 12.69390625 3.73609375 11.41515625 3.71484375 10.09765625 C2.06484375 9.76765625 0.41484375 9.43765625 -1.28515625 9.09765625 C-1.14407878 10.55645734 -0.9971321 12.01469176 -0.84765625 13.47265625 C-0.72583984 14.69082031 -0.72583984 14.69082031 -0.6015625 15.93359375 C-0.39425511 18.1403843 -0.39425511 18.1403843 0.71484375 20.09765625 C-1.92515625 20.09765625 -4.56515625 20.09765625 -7.28515625 20.09765625 C-6.62515625 19.76765625 -5.96515625 19.43765625 -5.28515625 19.09765625 C-5.28515625 15.79765625 -5.28515625 12.49765625 -5.28515625 9.09765625 C-5.94515625 9.09765625 -6.60515625 9.09765625 -7.28515625 9.09765625 C-7.28515625 8.43765625 -7.28515625 7.77765625 -7.28515625 7.09765625 C-6.62515625 6.76765625 -5.96515625 6.43765625 -5.28515625 6.09765625 C-4.58303731 4.44561169 -3.91544212 2.77841856 -3.28515625 1.09765625 C-2.28515625 0.09765625 -2.28515625 0.09765625 0 0 Z " fill="#000000" transform="translate(136.28515625,139.90234375)"/>
<path d="M0 0 C1.7492214 -0.08142927 3.49954542 -0.13938541 5.25 -0.1875 C6.22453125 -0.22230469 7.1990625 -0.25710937 8.203125 -0.29296875 C11.37468742 0.03924798 12.67040307 0.88672279 15 3 C14.773125 3.9075 14.54625 4.815 14.3125 5.75 C13.93959982 9.62816185 14.67890356 10.09862945 17 13 C16.73495121 16.00388632 16.16695725 16.83304275 14 19 C11.41935871 19.14497985 8.95056116 19.18677545 6.375 19.125 C5.31539062 19.11146484 5.31539062 19.11146484 4.234375 19.09765625 C2.48943902 19.07407603 0.74467705 19.03820461 -1 19 C-0.34 18.34 0.32 17.68 1 17 C1.30599063 14.43083343 1.51087087 11.95241616 1.625 9.375 C1.66367187 8.66859375 1.70234375 7.9621875 1.7421875 7.234375 C1.83647724 5.49001476 1.91932891 3.74504309 2 2 C1.34 2 0.68 2 0 2 C0 1.34 0 0.68 0 0 Z " fill="#000000" transform="translate(46,103)"/>
<path d="M0 0 C1.05960938 0.00676758 1.05960938 0.00676758 2.140625 0.01367188 C3.88545275 0.02546125 5.630237 0.04339676 7.375 0.0625 C7.705 3.6925 8.035 7.3225 8.375 11.0625 C9.035 11.0625 9.695 11.0625 10.375 11.0625 C10.705 8.0925 11.035 5.1225 11.375 2.0625 C10.715 2.0625 10.055 2.0625 9.375 2.0625 C9.375 1.4025 9.375 0.7425 9.375 0.0625 C13.665 0.0625 17.955 0.0625 22.375 0.0625 C23.80945114 2.93140229 23.80573118 5.80054294 24.09375 8.96875 C24.267155 11.11693933 24.267155 11.11693933 25.375 13.0625 C23.065 13.0625 20.755 13.0625 18.375 13.0625 C18.705 12.4025 19.035 11.7425 19.375 11.0625 C19.44450541 9.52226004 19.45952357 7.97915012 19.4375 6.4375 C19.42847656 5.62023437 19.41945313 4.80296875 19.41015625 3.9609375 C19.39855469 3.33445312 19.38695313 2.70796875 19.375 2.0625 C17.395 3.0525 17.395 3.0525 15.375 4.0625 C15.10567479 8.71302872 15.10567479 8.71302872 16.375 13.0625 C11.425 13.0625 6.475 13.0625 1.375 13.0625 C1.705 12.4025 2.035 11.7425 2.375 11.0625 C2.4439472 9.68907169 2.45967708 8.31247898 2.4375 6.9375 C2.416875 5.65875 2.39625 4.38 2.375 3.0625 C0.725 3.3925 -0.925 3.7225 -2.625 4.0625 C-2.955 6.7025 -3.285 9.3425 -3.625 12.0625 C-2.965 12.3925 -2.305 12.7225 -1.625 13.0625 C-4.265 13.0625 -6.905 13.0625 -9.625 13.0625 C-8.965 12.7325 -8.305 12.4025 -7.625 12.0625 C-7.76607747 10.60369891 -7.91302415 9.14546449 -8.0625 7.6875 C-8.14371094 6.87539062 -8.22492188 6.06328125 -8.30859375 5.2265625 C-8.51590114 3.01977195 -8.51590114 3.01977195 -9.625 1.0625 C-6.55966836 -0.47016582 -3.35745728 -0.04026471 0 0 Z " fill="#000000" transform="translate(72.625,108.9375)"/>
<path d="M0 0 C2.64 0 5.28 0 8 0 C9.20272819 2.40545638 9.10071472 3.94996953 9.0625 6.625 C9.05347656 7.44226563 9.04445313 8.25953125 9.03515625 9.1015625 C9.02355469 9.72804688 9.01195312 10.35453125 9 11 C9.99 11 10.98 11 12 11 C12.33 8.03 12.66 5.06 13 2 C12.34 2 11.68 2 11 2 C11 1.34 11 0.68 11 0 C15.29 0 19.58 0 24 0 C25.43445114 2.86890229 25.43073118 5.73804294 25.71875 8.90625 C25.892155 11.05443933 25.892155 11.05443933 27 13 C24.69 13 22.38 13 20 13 C20.33 12.34 20.66 11.68 21 11 C21.06950541 9.45976004 21.08452357 7.91665012 21.0625 6.375 C21.05347656 5.55773437 21.04445313 4.74046875 21.03515625 3.8984375 C21.02355469 3.27195312 21.01195312 2.64546875 21 2 C19.02 2.99 19.02 2.99 17 4 C16.73067479 8.65052872 16.73067479 8.65052872 18 13 C16.20909747 13.19466332 14.41723495 13.38051213 12.625 13.5625 C11.12839844 13.71912109 11.12839844 13.71912109 9.6015625 13.87890625 C7 14 7 14 5 13 C4.175 13.185625 3.35 13.37125 2.5 13.5625 C1.675 13.706875 0.85 13.85125 0 14 C-0.66 13.34 -1.32 12.68 -2 12 C-1.625 9.375 -1.625 9.375 -1 7 C0.98 6.34 2.96 5.68 5 5 C4.34 4.01 3.68 3.02 3 2 C2.67 2.66 2.34 3.32 2 4 C1.01 4 0.02 4 -1 4 C-0.67 2.68 -0.34 1.36 0 0 Z " fill="#0A0A0A" transform="translate(326,109)"/>
<path d="M0 0 C6.15234375 -0.09765625 6.15234375 -0.09765625 8 0 C9 1 9 1 9.09765625 3.28515625 C9.08605469 4.20167969 9.07445312 5.11820312 9.0625 6.0625 C9.05347656 6.98160156 9.04445313 7.90070313 9.03515625 8.84765625 C9.02355469 9.55792969 9.01195312 10.26820312 9 11 C10.32 11 11.64 11 13 11 C13 8.03 13 5.06 13 2 C12.34 2 11.68 2 11 2 C11 1.34 11 0.68 11 0 C13.14576637 -0.02685938 15.29162645 -0.04633088 17.4375 -0.0625 C18.63246094 -0.07410156 19.82742188 -0.08570312 21.05859375 -0.09765625 C24 0 24 0 25 1 C25.20839015 2.64107242 25.36751725 4.28856293 25.5 5.9375 C25.75214943 9.60557465 25.75214943 9.60557465 27 13 C24.69 13 22.38 13 20 13 C20.33 12.34 20.66 11.68 21 11 C21.0689472 9.62657169 21.08467708 8.24997898 21.0625 6.875 C21.041875 5.59625 21.02125 4.3175 21 3 C20.01 3 19.02 3 18 3 C16.63047327 5.73905345 16.87378639 7.97087332 17 11 C17.33 11.66 17.66 12.32 18 13 C15.77156512 13.19600577 13.54220107 13.38146569 11.3125 13.5625 C9.45044922 13.71912109 9.45044922 13.71912109 7.55078125 13.87890625 C4.44164467 13.98493841 1.99189028 13.77228525 -1 13 C-1.3125 10.6875 -1.3125 10.6875 -1 8 C1.3832946 6.18116991 2.95818337 5 6 5 C6 4.01 6 3.02 6 2 C5.401875 2.33 4.80375 2.66 4.1875 3 C2 4 2 4 -1 4 C-0.67 2.68 -0.34 1.36 0 0 Z " fill="#0C0C0C" transform="translate(255,109)"/>
<path d="M0 0 C1.2065625 0.0309375 1.2065625 0.0309375 2.4375 0.0625 C2.4375 2.3725 2.4375 4.6825 2.4375 7.0625 C3.55125 7.000625 4.665 6.93875 5.8125 6.875 C7.606875 6.9678125 7.606875 6.9678125 9.4375 7.0625 C11.57336678 10.26630017 11.66882175 11.08189967 11.5625 14.75 C11.54445313 15.55824219 11.52640625 16.36648437 11.5078125 17.19921875 C11.48460937 17.81410156 11.46140625 18.42898437 11.4375 19.0625 C12.0975 19.3925 12.7575 19.7225 13.4375 20.0625 C10.7975 20.0625 8.1575 20.0625 5.4375 20.0625 C6.0975 19.7325 6.7575 19.4025 7.4375 19.0625 C7.4375 15.7625 7.4375 12.4625 7.4375 9.0625 C6.1175 9.3925 4.7975 9.7225 3.4375 10.0625 C3.1075 13.0325 2.7775 16.0025 2.4375 19.0625 C3.0975 19.3925 3.7575 19.7225 4.4375 20.0625 C2.47985617 20.25706705 0.52134679 20.44294247 -1.4375 20.625 C-3.07332031 20.78162109 -3.07332031 20.78162109 -4.7421875 20.94140625 C-7.5625 21.0625 -7.5625 21.0625 -9.5625 20.0625 C-9.5625 16.4325 -9.5625 12.8025 -9.5625 9.0625 C-10.2225 9.0625 -10.8825 9.0625 -11.5625 9.0625 C-11.5625 7.0625 -11.5625 7.0625 -10.1875 5.4375 C-8.5625 4.0625 -8.5625 4.0625 -6.5625 4.0625 C-6.5625 5.0525 -6.5625 6.0425 -6.5625 7.0625 C-5.5725 7.0625 -4.5825 7.0625 -3.5625 7.0625 C-3.5625 7.7225 -3.5625 8.3825 -3.5625 9.0625 C-4.5525 9.0625 -5.5425 9.0625 -6.5625 9.0625 C-6.5625 12.0325 -6.5625 15.0025 -6.5625 18.0625 C-5.2425 18.0625 -3.9225 18.0625 -2.5625 18.0625 C-2.2325 12.7825 -1.9025 7.5025 -1.5625 2.0625 C-2.2225 1.7325 -2.8825 1.4025 -3.5625 1.0625 C-2.5625 0.0625 -2.5625 0.0625 0 0 Z " fill="#000000" transform="translate(507.5625,101.9375)"/>
<path d="M0 0 C2.8203125 -0.29296875 2.8203125 -0.29296875 6.125 -0.1875 C7.76855469 -0.14689453 7.76855469 -0.14689453 9.4453125 -0.10546875 C10.28835937 -0.07066406 11.13140625 -0.03585938 12 0 C12 0.99 12 1.98 12 3 C11.01 3 10.02 3 9 3 C8.8453125 4.175625 8.8453125 4.175625 8.6875 5.375 C8 8 8 8 5 10 C7.475 10.99 7.475 10.99 10 12 C10 13.98 10 15.96 10 18 C7.22296649 19.88838279 5.81270766 19.99354164 2.375 19.875 C-1 19 -1 19 -2.5 17.3125 C-3.15310332 14.29189713 -2.60416173 12.02080866 -2 9 C-2.020625 7.948125 -2.04125 6.89625 -2.0625 5.8125 C-2 3 -2 3 0 0 Z " fill="#171717" transform="translate(165,147)"/>
<path d="M0 0 C0.97710937 -0.01417969 1.95421875 -0.02835937 2.9609375 -0.04296875 C5.625 0.1875 5.625 0.1875 8.625 2.1875 C9.71482144 5.6904975 9.8663601 7.54860561 8.5625 11 C6.06632685 13.81826 4.30373693 13.94225087 0.625 14.1875 C0.955 15.8375 1.285 17.4875 1.625 19.1875 C-1.015 19.1875 -3.655 19.1875 -6.375 19.1875 C-6.045 18.5275 -5.715 17.8675 -5.375 17.1875 C-5.14327173 14.64134991 -4.95605471 12.11353775 -4.8125 9.5625 C-4.76931641 8.85609375 -4.72613281 8.1496875 -4.68164062 7.421875 C-4.57555249 5.67731463 -4.47477111 3.93243303 -4.375 2.1875 C-5.035 1.8575 -5.695 1.5275 -6.375 1.1875 C-4.64526886 -0.54223114 -2.34983037 0.01541883 0 0 Z " fill="#000000" transform="translate(369.375,108.8125)"/>
<path d="M0 0 C1.65322266 0.01740234 1.65322266 0.01740234 3.33984375 0.03515625 C4.99693359 0.04869141 4.99693359 0.04869141 6.6875 0.0625 C7.54214844 0.07410156 8.39679688 0.08570312 9.27734375 0.09765625 C9.27734375 1.08765625 9.27734375 2.07765625 9.27734375 3.09765625 C8.61734375 3.09765625 7.95734375 3.09765625 7.27734375 3.09765625 C6.84421875 4.27328125 6.84421875 4.27328125 6.40234375 5.47265625 C5.27734375 8.09765625 5.27734375 8.09765625 3.27734375 10.09765625 C4.92734375 11.08765625 6.57734375 12.07765625 8.27734375 13.09765625 C7.96484375 15.47265625 7.96484375 15.47265625 7.27734375 18.09765625 C3.09777925 20.88403258 1.13065698 19.89328137 -3.72265625 19.09765625 C-4.7465081 15.03281159 -4.69644725 11.51429465 -4.34765625 7.34765625 C-4.25742188 6.1978125 -4.1671875 5.04796875 -4.07421875 3.86328125 C-3.59953573 0.12910817 -3.59953573 0.12910817 0 0 Z " fill="#131313" transform="translate(140.72265625,108.90234375)"/>
<path d="M0 0 C1.98 0 3.96 0 6 0 C6.16768291 2.93744524 6.33418858 5.87494904 6.5 8.8125 C6.54769531 9.64587891 6.59539062 10.47925781 6.64453125 11.33789062 C6.68964844 12.14033203 6.73476563 12.94277344 6.78125 13.76953125 C6.8440918 14.87711792 6.8440918 14.87711792 6.90820312 16.00708008 C6.98479533 17.66990494 7 19.3354121 7 21 C-1.96523405 21.61593211 -1.96523405 21.61593211 -5.625 19.4375 C-7.51879045 16.08032602 -7.48258091 13.79170715 -7 10 C-5.9375 8.0625 -5.9375 8.0625 -4 7 C-0.3125 6.8125 -0.3125 6.8125 3 7 C2.65213292 5.02463255 2.65213292 5.02463255 2 3 C1.34 2.67 0.68 2.34 0 2 C0 1.34 0 0.68 0 0 Z " fill="#000000" transform="translate(290,102)"/>
<path d="M0 0 C1.2694043 -0.00193359 1.2694043 -0.00193359 2.56445312 -0.00390625 C3.44939453 -0.00003906 4.33433594 0.00382813 5.24609375 0.0078125 C6.13490234 0.00394531 7.02371094 0.00007812 7.93945312 -0.00390625 C8.78443359 -0.00261719 9.62941406 -0.00132812 10.5 0 C11.66704468 0.00169189 11.66704468 0.00169189 12.85766602 0.00341797 C14.68359375 0.1328125 14.68359375 0.1328125 15.68359375 1.1328125 C15.75564886 2.81890216 15.76745443 4.50781909 15.74609375 6.1953125 C15.73707031 7.11441406 15.72804688 8.03351563 15.71875 8.98046875 C15.70714844 9.69074219 15.69554687 10.40101563 15.68359375 11.1328125 C16.67359375 11.4628125 17.66359375 11.7928125 18.68359375 12.1328125 C18.02359375 12.7928125 17.36359375 13.4528125 16.68359375 14.1328125 C15.01354546 13.81685742 13.34721792 13.48101291 11.68359375 13.1328125 C10.35328125 13.41125 10.35328125 13.41125 8.99609375 13.6953125 C7.85140625 13.911875 7.85140625 13.911875 6.68359375 14.1328125 C6.02359375 13.4728125 5.36359375 12.8128125 4.68359375 12.1328125 C4.86589547 9.30713578 5.47737253 8.32528564 7.55859375 6.3828125 C9.68359375 5.1328125 9.68359375 5.1328125 12.68359375 5.1328125 C11.69359375 4.1428125 10.70359375 3.1528125 9.68359375 2.1328125 C9.35359375 2.7928125 9.02359375 3.4528125 8.68359375 4.1328125 C6.04359375 4.1328125 3.40359375 4.1328125 0.68359375 4.1328125 C0.35359375 6.7728125 0.02359375 9.4128125 -0.31640625 12.1328125 C0.34359375 12.4628125 1.00359375 12.7928125 1.68359375 13.1328125 C-0.95640625 13.1328125 -3.59640625 13.1328125 -6.31640625 13.1328125 C-5.65640625 12.8028125 -4.99640625 12.4728125 -4.31640625 12.1328125 C-4.45748372 10.67401141 -4.6044304 9.21577699 -4.75390625 7.7578125 C-4.83511719 6.94570312 -4.91632813 6.13359375 -5 5.296875 C-5.20730739 3.09008445 -5.20730739 3.09008445 -6.31640625 1.1328125 C-3.98476789 -0.03300668 -2.59487143 0.00375641 0 0 Z " fill="#151515" transform="translate(280.31640625,146.8671875)"/>
<path d="M0 0 C1.05960937 0.00676758 1.05960937 0.00676758 2.140625 0.01367188 C3.88545275 0.02546125 5.630237 0.04339676 7.375 0.0625 C7.705 2.3725 8.035 4.6825 8.375 7.0625 C10.74480013 4.10872502 10.74480013 4.10872502 10.375 0.0625 C12.355 0.0625 14.335 0.0625 16.375 0.0625 C16.375 0.7225 16.375 1.3825 16.375 2.0625 C15.715 2.0625 15.055 2.0625 14.375 2.0625 C14.148125 2.825625 13.92125 3.58875 13.6875 4.375 C12.54667209 7.58018317 11.36380623 10.73222269 10.0625 13.875 C9.67449219 14.83019531 9.28648437 15.78539063 8.88671875 16.76953125 C7.375 19.0625 7.375 19.0625 4.70703125 19.88671875 C3.93746094 19.94472656 3.16789062 20.00273437 2.375 20.0625 C2.94694165 16.74523845 3.94500464 15.33614177 6.375 13.0625 C6.08625 12.43601562 5.7975 11.80953125 5.5 11.1640625 C5.12875 10.34679687 4.7575 9.52953125 4.375 8.6875 C4.00375 7.87539062 3.6325 7.06328125 3.25 6.2265625 C2.375 4.0625 2.375 4.0625 2.375 2.0625 C1.715 2.0625 1.055 2.0625 0.375 2.0625 C0.375 2.7225 0.375 3.3825 0.375 4.0625 C-1.935 3.4025 -4.245 2.7425 -6.625 2.0625 C-6.625 5.0325 -6.625 8.0025 -6.625 11.0625 C-3.16 10.5675 -3.16 10.5675 0.375 10.0625 C0.045 11.0525 -0.285 12.0425 -0.625 13.0625 C-5.94610092 14.39277523 -5.94610092 14.39277523 -8.9375 12.9375 C-11.06041792 10.57870231 -11.47440338 9.22502912 -11.625 6.0625 C-10.8125 3.3125 -10.8125 3.3125 -9.625 1.0625 C-6.55966836 -0.47016582 -3.35745728 -0.04026471 0 0 Z " fill="#000000" transform="translate(443.625,108.9375)"/>
<path d="M0 0 C1.06992187 -0.03738281 2.13984375 -0.07476562 3.2421875 -0.11328125 C6.125 0.3125 6.125 0.3125 8.01171875 2.109375 C9.71511158 5.48029976 9.09826737 7.74385299 8.125 11.3125 C6.3125 13.25 6.3125 13.25 4.125 14.3125 C2.805 14.3125 1.485 14.3125 0.125 14.3125 C0.125 15.3025 0.125 16.2925 0.125 17.3125 C0.785 17.9725 1.445 18.6325 2.125 19.3125 C-0.845 19.3125 -3.815 19.3125 -6.875 19.3125 C-6.215 18.9825 -5.555 18.6525 -4.875 18.3125 C-4.875 13.0325 -4.875 7.7525 -4.875 2.3125 C-5.535 1.9825 -6.195 1.6525 -6.875 1.3125 C-5.06850099 -0.49399901 -2.43748958 0.05553034 0 0 Z " fill="#000000" transform="translate(562.875,108.6875)"/>
<path d="M0 0 C6.15234375 -0.09765625 6.15234375 -0.09765625 8 0 C9 1 9 1 9.09765625 3.28515625 C9.08605469 4.20167969 9.07445312 5.11820312 9.0625 6.0625 C9.05347656 6.98160156 9.04445313 7.90070313 9.03515625 8.84765625 C9.02355469 9.55792969 9.01195312 10.26820312 9 11 C9.99 11 10.98 11 12 11 C12.33 8.36 12.66 5.72 13 3 C12.34 3 11.68 3 11 3 C11.33 2.01 11.66 1.02 12 0 C15.3 0 18.6 0 22 0 C22 0.99 22 1.98 22 3 C20.68 3.33 19.36 3.66 18 4 C16.95785309 8.61507774 16.95785309 8.61507774 18 13 C16.22932584 13.16834933 14.45845388 13.33461909 12.6875 13.5 C11.70136719 13.5928125 10.71523438 13.685625 9.69921875 13.78125 C5.89912046 14.08921744 2.71219333 13.80263639 -1 13 C-1.33 11.68 -1.66 10.36 -2 9 C2.625 5 2.625 5 6 5 C5.01 4.01 4.02 3.02 3 2 C2.67 2.66 2.34 3.32 2 4 C1.01 4 0.02 4 -1 4 C-0.67 2.68 -0.34 1.36 0 0 Z " fill="#0C0C0C" transform="translate(381,109)"/>
<path d="M0 0 C1.65 0 3.3 0 5 0 C5.33 3.3 5.66 6.6 6 10 C6.99 10 7.98 10 9 10 C9.33 7.36 9.66 4.72 10 2 C9.34 2 8.68 2 8 2 C8 1.34 8 0.68 8 0 C9.98 0 11.96 0 14 0 C14 3.96 14 7.92 14 12 C14.99 11.67 15.98 11.34 17 11 C17.33 8.36 17.66 5.72 18 3 C17.34 3 16.68 3 16 3 C16.33 2.01 16.66 1.02 17 0 C20.3 0 23.6 0 27 0 C27 0.99 27 1.98 27 3 C25.35 3 23.7 3 22 3 C21.979375 4.27875 21.95875 5.5575 21.9375 6.875 C21.92589844 7.59429687 21.91429688 8.31359375 21.90234375 9.0546875 C21.87350758 11.08185404 21.87350758 11.08185404 23 13 C21.06263299 13.16820551 19.12510094 13.33451095 17.1875 13.5 C16.10855469 13.5928125 15.02960938 13.685625 13.91796875 13.78125 C10.04553711 14.07155277 6.7743583 13.89392697 3 13 C2 12 2 12 1.90234375 9.71484375 C1.91974609 8.34005859 1.91974609 8.34005859 1.9375 6.9375 C1.94652344 6.01839844 1.95554687 5.09929687 1.96484375 4.15234375 C1.97644531 3.44207031 1.98804687 2.73179687 2 2 C1.34 2 0.68 2 0 2 C0 1.34 0 0.68 0 0 Z " fill="#000000" transform="translate(96,147)"/>
<path d="M0 0 C0 0.99 0 1.98 0 3 C2.97 3 5.94 3 9 3 C9.06058594 3.77085937 9.12117188 4.54171875 9.18359375 5.3359375 C9.26738281 6.33882812 9.35117187 7.34171875 9.4375 8.375 C9.51871094 9.37273437 9.59992188 10.37046875 9.68359375 11.3984375 C9.84965626 13.97927613 9.84965626 13.97927613 11 16 C4.565 16.495 4.565 16.495 -2 17 C-4.12749429 13.80875856 -4.43555602 12.23928425 -4.8125 8.5 C-4.92207031 7.5409375 -5.03164063 6.581875 -5.14453125 5.59375 C-5 3 -5 3 -3.63671875 1.15625 C-2 0 -2 0 0 0 Z " fill="#000000" transform="translate(396,144)"/>
<path d="M0 0 C6.15234375 -0.09765625 6.15234375 -0.09765625 8 0 C9 1 9 1 9.09765625 3.28515625 C9.08605469 4.20167969 9.07445312 5.11820312 9.0625 6.0625 C9.05347656 6.98160156 9.04445312 7.90070313 9.03515625 8.84765625 C9.02355469 9.55792969 9.01195312 10.26820312 9 11 C10.32 11 11.64 11 13 11 C13 8.03 13 5.06 13 2 C12.34 2 11.68 2 11 2 C11 1.34 11 0.68 11 0 C12.98 0 14.96 0 17 0 C17.06058594 0.77085938 17.12117188 1.54171875 17.18359375 2.3359375 C17.30927734 3.84027344 17.30927734 3.84027344 17.4375 5.375 C17.51871094 6.37273437 17.59992188 7.37046875 17.68359375 8.3984375 C17.84965626 10.97927613 17.84965626 10.97927613 19 13 C16.60458732 13.19585135 14.20907226 13.38192107 11.8125 13.5625 C10.80219727 13.64661133 10.80219727 13.64661133 9.77148438 13.73242188 C5.982869 14.00963763 2.68172206 13.96511161 -1 13 C-1.3125 10.6875 -1.3125 10.6875 -1 8 C1.3832946 6.18116991 2.95818337 5 6 5 C6 4.01 6 3.02 6 2 C5.401875 2.33 4.80375 2.66 4.1875 3 C2 4 2 4 -1 4 C-0.67 2.68 -0.34 1.36 0 0 Z " fill="#0F0F0F" transform="translate(167,109)"/>
<path d="M0 0 C0.80566406 0.00322266 1.61132812 0.00644531 2.44140625 0.00976562 C3.70404297 0.02233398 3.70404297 0.02233398 4.9921875 0.03515625 C5.84167969 0.03966797 6.69117188 0.04417969 7.56640625 0.04882812 C9.66669659 0.06062751 11.7669508 0.07856319 13.8671875 0.09765625 C13.8671875 1.41765625 13.8671875 2.73765625 13.8671875 4.09765625 C13.2071875 4.09765625 12.5471875 4.09765625 11.8671875 4.09765625 C11.8671875 3.43765625 11.8671875 2.77765625 11.8671875 2.09765625 C10.8771875 2.59265625 10.8771875 2.59265625 9.8671875 3.09765625 C10.6921875 3.65453125 11.5171875 4.21140625 12.3671875 4.78515625 C14.8671875 7.09765625 14.8671875 7.09765625 15.3671875 9.72265625 C14.8671875 12.09765625 14.8671875 12.09765625 11.8671875 14.09765625 C8.6796875 13.72265625 8.6796875 13.72265625 5.8671875 13.09765625 C5.8671875 11.44765625 5.8671875 9.79765625 5.8671875 8.09765625 C7.8671875 8.09765625 7.8671875 8.09765625 9.4921875 9.59765625 C9.9459375 10.09265625 10.3996875 10.58765625 10.8671875 11.09765625 C8.3671875 8.78515625 8.3671875 8.78515625 5.8671875 6.09765625 C5.8671875 5.10765625 5.8671875 4.11765625 5.8671875 3.09765625 C4.2171875 3.42765625 2.5671875 3.75765625 0.8671875 4.09765625 C0.5371875 6.73765625 0.2071875 9.37765625 -0.1328125 12.09765625 C0.5271875 12.42765625 1.1871875 12.75765625 1.8671875 13.09765625 C-0.7728125 13.09765625 -3.4128125 13.09765625 -6.1328125 13.09765625 C-5.4728125 12.76765625 -4.8128125 12.43765625 -4.1328125 12.09765625 C-4.27388997 10.63885516 -4.42083665 9.18062074 -4.5703125 7.72265625 C-4.65152344 6.91054687 -4.73273438 6.0984375 -4.81640625 5.26171875 C-5.02371364 3.0549282 -5.02371364 3.0549282 -6.1328125 1.09765625 C-3.8362755 -0.05061225 -2.54968083 -0.0179555 0 0 Z " fill="#000000" transform="translate(195.1328125,146.90234375)"/>
<path d="M0 0 C2.5 1.5625 2.5 1.5625 4 4 C4.0625 7.5625 4.0625 7.5625 3 11 C0.19114934 13.56809203 -1.32615149 14 -5.125 14 C-8 13 -8 13 -10 10.875 C-11.36197337 6.95932656 -10.52641417 4.77969224 -9 1 C-5.90826248 -0.54586876 -3.40570448 -0.29359521 0 0 Z " fill="#000000" transform="translate(46,147)"/>
<path d="M0 0 C2.12579971 1.41719981 2.77765895 2.5394364 3.875 4.8125 C4.07575968 8.32579444 3.01548966 10.16571766 1 13 C-2.375 14.1875 -2.375 14.1875 -6 14 C-9 12 -9 12 -11 9 C-11 5.3125 -11 5.3125 -10 2 C-6.30513897 -0.46324069 -4.36706908 -0.38991688 0 0 Z " fill="#000000" transform="translate(92,147)"/>
<path d="M0 0 C2.0625 1.5625 2.0625 1.5625 3 4 C2.93375803 7.77579201 2.78061285 10.07482922 0.3125 13 C-2.87167993 14.37694267 -4.70924801 13.980224 -8 13 C-9.875 11.875 -9.875 11.875 -11 10 C-11.36248449 6.61681143 -11.58433618 4.13215135 -10 1.0625 C-6.75482811 -0.66149757 -3.58008387 -0.65498416 0 0 Z " fill="#000000" transform="translate(235,147)"/>
<path d="M0 0 C2.0625 1.5625 2.0625 1.5625 3 4 C2.93375803 7.77579201 2.78061285 10.07482922 0.3125 13 C-2.87167993 14.37694267 -4.70924801 13.980224 -8 13 C-9.875 11.875 -9.875 11.875 -11 10 C-11.36248449 6.61681143 -11.58433618 4.13215135 -10 1.0625 C-6.75482811 -0.66149757 -3.58008387 -0.65498416 0 0 Z " fill="#000000" transform="translate(486,109)"/>
<path d="M0 0 C0.66 0 1.32 0 2 0 C2 0.99 2 1.98 2 3 C2.99 3 3.98 3 5 3 C5 3.66 5 4.32 5 5 C4.01 5 3.02 5 2 5 C2 7.97 2 10.94 2 14 C3.65 14 5.3 14 7 14 C7.33 11.36 7.66 8.72 8 6 C7.34 6 6.68 6 6 6 C6.33 5.01 6.66 4.02 7 3 C10.3 3 13.6 3 17 3 C17 3.99 17 4.98 17 6 C15.68 6.33 14.36 6.66 13 7 C11.95785309 11.61507774 11.95785309 11.61507774 13 16 C11.04310341 16.22142255 9.08438048 16.4267568 7.125 16.625 C5.48917969 16.79902344 5.48917969 16.79902344 3.8203125 16.9765625 C2.88960938 16.98429687 1.95890625 16.99203125 1 17 C-1 15 -1 15 -1.1953125 12.6171875 C-1.17210937 11.71226563 -1.14890625 10.80734375 -1.125 9.875 C-1.10695313 8.96492188 -1.08890625 8.05484375 -1.0703125 7.1171875 C-1.04710937 6.41851562 -1.02390625 5.71984375 -1 5 C-1.66 4.67 -2.32 4.34 -3 4 C-1.625 2 -1.625 2 0 0 Z " fill="#000000" transform="translate(307,106)"/>
<path d="M0 0 C2.64 0 5.28 0 8 0 C9.20272819 2.40545638 9.10071472 3.94996953 9.0625 6.625 C9.05347656 7.44226563 9.04445313 8.25953125 9.03515625 9.1015625 C9.02355469 9.72804687 9.01195312 10.35453125 9 11 C9.66 11 10.32 11 11 11 C10.67 11.99 10.34 12.98 10 14 C9.278125 13.814375 8.55625 13.62875 7.8125 13.4375 C5.01214155 12.83247571 5.01214155 12.83247571 2.3125 13.5625 C1.549375 13.706875 0.78625 13.85125 0 14 C-0.66 13.34 -1.32 12.68 -2 12 C-1.625 9.375 -1.625 9.375 -1 7 C0.98 6.34 2.96 5.68 5 5 C4.34 4.01 3.68 3.02 3 2 C2.67 2.66 2.34 3.32 2 4 C1.01 4 0.02 4 -1 4 C-0.67 2.68 -0.34 1.36 0 0 Z " fill="#131313" transform="translate(346,147)"/>
<path d="M0 0 C2.64 0 5.28 0 8 0 C7.67 0.99 7.34 1.98 7 3 C7.39397335 5.63804589 7.39397335 5.63804589 8 8 C8.66 8 9.32 8 10 8 C10.79953138 4.71303767 11.09658936 3.28976808 10 0 C11.98 0 13.96 0 16 0 C14.39165599 4.17213992 12.5633987 8.22280961 10.625 12.25 C10.33367187 12.88679687 10.04234375 13.52359375 9.7421875 14.1796875 C7.50531649 18.79078124 7.50531649 18.79078124 4.7734375 19.921875 C4.18820313 19.94765625 3.60296875 19.9734375 3 20 C3 18.68 3 17.36 3 16 C3.99 15.67 4.98 15.34 6 15 C5.33300065 10.59780431 3.91896516 6.99144754 2 3 C1.34 2.67 0.68 2.34 0 2 C0 1.34 0 0.68 0 0 Z " fill="#000000" transform="translate(65,147)"/>
<path d="M0 0 C0.66 0 1.32 0 2 0 C2 0.99 2 1.98 2 3 C2.99 3 3.98 3 5 3 C5 3.66 5 4.32 5 5 C4.01 5 3.02 5 2 5 C2 7.97 2 10.94 2 14 C3.65 14 5.3 14 7 14 C7.33 11.03 7.66 8.06 8 5 C7.34 5 6.68 5 6 5 C6 4.34 6 3.68 6 3 C7.65 3 9.3 3 11 3 C11.04898438 3.85464844 11.09796875 4.70929688 11.1484375 5.58984375 C11.22320313 6.69457031 11.29796875 7.79929687 11.375 8.9375 C11.44460938 10.03964844 11.51421875 11.14179687 11.5859375 12.27734375 C11.72257813 13.17582031 11.85921875 14.07429688 12 15 C12.66 15.33 13.32 15.66 14 16 C11.87631556 16.22134176 9.75095976 16.42670007 7.625 16.625 C6.44164062 16.74101563 5.25828125 16.85703125 4.0390625 16.9765625 C3.03617188 16.98429687 2.03328125 16.99203125 1 17 C-1 15 -1 15 -1.1953125 12.6171875 C-1.17210937 11.71226563 -1.14890625 10.80734375 -1.125 9.875 C-1.10695313 8.96492188 -1.08890625 8.05484375 -1.0703125 7.1171875 C-1.04710937 6.41851562 -1.02390625 5.71984375 -1 5 C-1.66 4.67 -2.32 4.34 -3 4 C-1.625 2 -1.625 2 0 0 Z " fill="#000000" transform="translate(543,106)"/>
<path d="M0 0 C6.15234375 -0.09765625 6.15234375 -0.09765625 8 0 C9.91683709 1.91683709 9.42750305 5.36557292 9.62109375 7.96875 C9.74613281 8.6390625 9.87117188 9.309375 10 10 C10.66 10.33 11.32 10.66 12 11 C12 11.66 12 12.32 12 13 C8.25 14.125 8.25 14.125 6 13 C5.175 13.165 4.35 13.33 3.5 13.5 C1 14 1 14 -1 13 C-1.3125 10.6875 -1.3125 10.6875 -1 8 C1.3832946 6.18116991 2.95818337 5 6 5 C6 4.01 6 3.02 6 2 C4.02 2.66 2.04 3.32 0 4 C-0.33 3.34 -0.66 2.68 -1 2 C-0.67 1.34 -0.34 0.68 0 0 Z " fill="#181818" transform="translate(373,147)"/>
<path d="M0 0 C1.95803507 -0.05389087 3.91648909 -0.09274217 5.875 -0.125 C7.51082031 -0.15980469 7.51082031 -0.15980469 9.1796875 -0.1953125 C12 0 12 0 14 2 C14.1953125 4.3828125 14.1953125 4.3828125 14.125 7.125 C14.10695312 8.03507813 14.08890625 8.94515625 14.0703125 9.8828125 C14.04710937 10.58148438 14.02390625 11.28015625 14 12 C14.66 12.33 15.32 12.66 16 13 C13.69 13 11.38 13 9 13 C9.33 9.37 9.66 5.74 10 2 C8.68 2 7.36 2 6 2 C5.9729957 3.45823212 5.95360213 4.91660675 5.9375 6.375 C5.92589844 7.18710938 5.91429687 7.99921875 5.90234375 8.8359375 C5.85533666 11.04937142 5.85533666 11.04937142 7 13 C4.69 13 2.38 13 0 13 C0.33 12.34 0.66 11.68 1 11 C1.21377721 5.39296787 1.21377721 5.39296787 0 0 Z " fill="#000000" transform="translate(239,147)"/>
<path d="M0 0 C1.95803507 -0.05389087 3.91648909 -0.09274217 5.875 -0.125 C7.51082031 -0.15980469 7.51082031 -0.15980469 9.1796875 -0.1953125 C12 0 12 0 14 2 C14.1953125 4.3828125 14.1953125 4.3828125 14.125 7.125 C14.10695312 8.03507812 14.08890625 8.94515625 14.0703125 9.8828125 C14.04710937 10.58148438 14.02390625 11.28015625 14 12 C14.66 12.33 15.32 12.66 16 13 C13.69 13 11.38 13 9 13 C9.33 9.37 9.66 5.74 10 2 C8.68 2 7.36 2 6 2 C5.9729957 3.45823212 5.95360213 4.91660675 5.9375 6.375 C5.92589844 7.18710938 5.91429688 7.99921875 5.90234375 8.8359375 C5.85533666 11.04937142 5.85533666 11.04937142 7 13 C4.69 13 2.38 13 0 13 C0.33 12.34 0.66 11.68 1 11 C1.21377721 5.39296787 1.21377721 5.39296787 0 0 Z " fill="#000000" transform="translate(120,109)"/>
<path d="M0 0 C0.70125 -0.01675781 1.4025 -0.03351563 2.125 -0.05078125 C2.74375 0.06910156 3.3625 0.18898438 4 0.3125 C6 3.3125 6 3.3125 6 6.3125 C3.03 6.3125 0.06 6.3125 -3 6.3125 C-2.67 7.9625 -2.34 9.6125 -2 11.3125 C1.465 10.8175 1.465 10.8175 5 10.3125 C4.67 11.3025 4.34 12.2925 4 13.3125 C1.3125 14.125 1.3125 14.125 -2 14.3125 C-4.9375 12.3125 -4.9375 12.3125 -7 9.3125 C-6.90315757 3.59879692 -6.15866473 0.03396322 0 0 Z " fill="#141414" transform="translate(410,108.6875)"/>
<path d="M0 0 C0.70125 -0.01675781 1.4025 -0.03351563 2.125 -0.05078125 C2.74375 0.06910156 3.3625 0.18898438 4 0.3125 C6 3.3125 6 3.3125 6 6.3125 C3.03 6.3125 0.06 6.3125 -3 6.3125 C-2.67 7.9625 -2.34 9.6125 -2 11.3125 C1.465 10.8175 1.465 10.8175 5 10.3125 C4.67 11.3025 4.34 12.2925 4 13.3125 C1.3125 14.125 1.3125 14.125 -2 14.3125 C-4.9375 12.3125 -4.9375 12.3125 -7 9.3125 C-6.90315757 3.59879692 -6.15866473 0.03396322 0 0 Z " fill="#141414" transform="translate(220,108.6875)"/>
<path d="M0 0 C1 1 1 1 1.0625 3.5625 C1.041875 4.366875 1.02125 5.17125 1 6 C-1.64 6 -4.28 6 -7 6 C-6.67 7.32 -6.34 8.64 -6 10 C-3.69 10 -1.38 10 1 10 C0.67 10.99 0.34 11.98 0 13 C-5.37154989 14.22080679 -5.37154989 14.22080679 -8.3125 13.1875 C-10 12 -10 12 -11 10 C-11.27756584 6.80799279 -11.24964598 4.5929092 -10 1.625 C-6.79047379 -0.98274005 -4.04942257 -0.32656634 0 0 Z " fill="#121212" transform="translate(266,147)"/>
<path d="M0 0 C1 1 1 1 1.0625 3.5625 C1.041875 4.366875 1.02125 5.17125 1 6 C-1.64 6 -4.28 6 -7 6 C-6.67 7.32 -6.34 8.64 -6 10 C-3.69 10 -1.38 10 1 10 C0.67 10.99 0.34 11.98 0 13 C-5.37154989 14.22080679 -5.37154989 14.22080679 -8.3125 13.1875 C-10 12 -10 12 -11 10 C-11.27756584 6.80799279 -11.24964598 4.5929092 -10 1.625 C-6.79047379 -0.98274005 -4.04942257 -0.32656634 0 0 Z " fill="#121212" transform="translate(532,109)"/>
<path d="M0 0 C2 2 2 2 2 6 C-0.97 6 -3.94 6 -7 6 C-6.34 7.32 -5.68 8.64 -5 10 C-2.69 10 -0.38 10 2 10 C0.375 12.0625 0.375 12.0625 -2 14 C-5.0625 14.0625 -5.0625 14.0625 -8 13 C-10 10.875 -10 10.875 -11 8 C-10.3125 4.25 -10.3125 4.25 -9 1 C-5.98675805 -0.50662097 -3.31713623 -0.17770373 0 0 Z " fill="#121212" transform="translate(335,147)"/>
<path d="M0 0 C2 2 2 2 2 6 C-0.97 6 -3.94 6 -7 6 C-6.34 7.32 -5.68 8.64 -5 10 C-2.69 10 -0.38 10 2 10 C0.375 12.0625 0.375 12.0625 -2 14 C-5.0625 14.0625 -5.0625 14.0625 -8 13 C-10 10.875 -10 10.875 -11 8 C-10.3125 4.25 -10.3125 4.25 -9 1 C-5.98675805 -0.50662097 -3.31713623 -0.17770373 0 0 Z " fill="#131313" transform="translate(187,147)"/>
<path d="M0 0 C2.14576637 -0.02685938 4.29162645 -0.04633088 6.4375 -0.0625 C7.63246094 -0.07410156 8.82742188 -0.08570312 10.05859375 -0.09765625 C13 0 13 0 14 1 C14.20839015 2.64107242 14.36751725 4.28856293 14.5 5.9375 C14.75214943 9.60557465 14.75214943 9.60557465 16 13 C13.69 13 11.38 13 9 13 C9.33 12.34 9.66 11.68 10 11 C10.0689472 9.62657169 10.08467708 8.24997898 10.0625 6.875 C10.041875 5.59625 10.02125 4.3175 10 3 C9.01 3 8.02 3 7 3 C5.63047327 5.73905345 5.87378639 7.97087332 6 11 C6.33 11.66 6.66 12.32 7 13 C4.69 13 2.38 13 0 13 C0.33 12.34 0.66 11.68 1 11 C1.22467831 9.46331135 1.40796805 7.92031946 1.5625 6.375 C1.64628906 5.55773437 1.73007812 4.74046875 1.81640625 3.8984375 C1.87699219 3.27195312 1.93757813 2.64546875 2 2 C1.34 2 0.68 2 0 2 C0 1.34 0 0.68 0 0 Z " fill="#000000" transform="translate(416,109)"/>
<path d="M0 0 C2 2 2 2 2 6 C-0.97 6 -3.94 6 -7 6 C-6.34 7.32 -5.68 8.64 -5 10 C-2.69 10 -0.38 10 2 10 C1.67 10.99 1.34 11.98 1 13 C-5.27272727 14.44755245 -5.27272727 14.44755245 -8.4375 12.5 C-10.55253414 9.11594538 -10.49891602 6.92005446 -10 3 C-7.77611809 -1.05531408 -4.20231132 -0.3820283 0 0 Z " fill="#101010" transform="translate(443,147)"/>
<path d="M0 0 C1.134375 0.020625 2.26875 0.04125 3.4375 0.0625 C3.4375 1.0525 3.4375 2.0425 3.4375 3.0625 C0.4675 2.5675 0.4675 2.5675 -2.5625 2.0625 C-2.5625 3.7125 -2.5625 5.3625 -2.5625 7.0625 C-1.2425 7.0625 0.0775 7.0625 1.4375 7.0625 C1.4375 7.7225 1.4375 8.3825 1.4375 9.0625 C0.1175 9.0625 -1.2025 9.0625 -2.5625 9.0625 C-2.42142253 10.52130109 -2.27447585 11.97953551 -2.125 13.4375 C-2.00318359 14.65566406 -2.00318359 14.65566406 -1.87890625 15.8984375 C-1.67159886 18.10522805 -1.67159886 18.10522805 -0.5625 20.0625 C-3.2025 20.0625 -5.8425 20.0625 -8.5625 20.0625 C-7.9025 19.7325 -7.2425 19.4025 -6.5625 19.0625 C-6.5625 15.7625 -6.5625 12.4625 -6.5625 9.0625 C-7.2225 9.0625 -7.8825 9.0625 -8.5625 9.0625 C-8.5625 8.4025 -8.5625 7.7425 -8.5625 7.0625 C-7.9025 6.7325 -7.2425 6.4025 -6.5625 6.0625 C-5.86038106 4.41045544 -5.19278587 2.74326231 -4.5625 1.0625 C-3.5625 0.0625 -3.5625 0.0625 0 0 Z " fill="#000000" transform="translate(58.5625,139.9375)"/>
<path d="M0 0 C1.670625 0.061875 1.670625 0.061875 3.375 0.125 C3.375 1.115 3.375 2.105 3.375 3.125 C0.405 2.63 0.405 2.63 -2.625 2.125 C-2.955 3.775 -3.285 5.425 -3.625 7.125 C-2.305 7.125 -0.985 7.125 0.375 7.125 C0.375 7.785 0.375 8.445 0.375 9.125 C-0.945 9.125 -2.265 9.125 -3.625 9.125 C-3.31578116 10.58403258 -3.00251201 12.04220722 -2.6875 13.5 C-2.42646484 14.71816406 -2.42646484 14.71816406 -2.16015625 15.9609375 C-1.70169307 18.154463 -1.70169307 18.154463 -0.625 20.125 C-3.265 20.125 -5.905 20.125 -8.625 20.125 C-8.295 19.465 -7.965 18.805 -7.625 18.125 C-7.40032169 16.58831135 -7.21703195 15.04531946 -7.0625 13.5 C-6.97871094 12.68273437 -6.89492187 11.86546875 -6.80859375 11.0234375 C-6.74800781 10.39695312 -6.68742188 9.77046875 -6.625 9.125 C-7.285 9.125 -7.945 9.125 -8.625 9.125 C-8.625 8.465 -8.625 7.805 -8.625 7.125 C-7.965 7.125 -7.305 7.125 -6.625 7.125 C-6.50125 6.34125 -6.3775 5.5575 -6.25 4.75 C-5.24817417 0.54233152 -4.32269173 0.14905834 0 0 Z " fill="#010101" transform="translate(164.625,101.875)"/>
<path d="M0 0 C1.05960937 0.00676758 1.05960937 0.00676758 2.140625 0.01367188 C3.88545275 0.02546125 5.630237 0.04339676 7.375 0.0625 C6.715 1.3825 6.055 2.7025 5.375 4.0625 C2.735 4.0625 0.095 4.0625 -2.625 4.0625 C-2.955 6.7025 -3.285 9.3425 -3.625 12.0625 C-2.965 12.3925 -2.305 12.7225 -1.625 13.0625 C-4.265 13.0625 -6.905 13.0625 -9.625 13.0625 C-8.965 12.7325 -8.305 12.4025 -7.625 12.0625 C-7.76607747 10.60369891 -7.91302415 9.14546449 -8.0625 7.6875 C-8.14371094 6.87539062 -8.22492188 6.06328125 -8.30859375 5.2265625 C-8.51590114 3.01977195 -8.51590114 3.01977195 -9.625 1.0625 C-6.55966836 -0.47016582 -3.35745728 -0.04026471 0 0 Z " fill="#000000" transform="translate(283.625,146.9375)"/>
<path d="M0 0 C0.94875 0.04125 1.8975 0.0825 2.875 0.125 C2.545 1.445 2.215 2.765 1.875 4.125 C1.215 4.125 0.555 4.125 -0.125 4.125 C0.535 4.49625 1.195 4.8675 1.875 5.25 C3.875 7.125 3.875 7.125 4.125 10.3125 C4.0425 11.240625 3.96 12.16875 3.875 13.125 C-1.75 14.25 -1.75 14.25 -5.125 13.125 C-5.125 11.475 -5.125 9.825 -5.125 8.125 C-3.125 8.125 -3.125 8.125 -1 10.125 C-0.38125 10.785 0.2375 11.445 0.875 12.125 C0.875 11.135 0.875 10.145 0.875 9.125 C0.070625 8.898125 -0.73375 8.67125 -1.5625 8.4375 C-4.125 7.125 -4.125 7.125 -5.0625 4.625 C-5.083125 3.8 -5.10375 2.975 -5.125 2.125 C-3.125 0.125 -3.125 0.125 0 0 Z " fill="#000000" transform="translate(242.125,108.875)"/>
<path d="M0 0 C1.134375 0.020625 2.26875 0.04125 3.4375 0.0625 C3.4375 1.3825 3.4375 2.7025 3.4375 4.0625 C2.7775 4.0625 2.1175 4.0625 1.4375 4.0625 C1.4375 3.4025 1.4375 2.7425 1.4375 2.0625 C0.4475 2.0625 -0.5425 2.0625 -1.5625 2.0625 C-1.5625 2.7225 -1.5625 3.3825 -1.5625 4.0625 C-0.3559375 4.371875 -0.3559375 4.371875 0.875 4.6875 C1.720625 5.14125 2.56625 5.595 3.4375 6.0625 C4.25 9.1875 4.25 9.1875 4.4375 12.0625 C1.4375 14.0625 1.4375 14.0625 -1.75 13.6875 C-3.1421875 13.378125 -3.1421875 13.378125 -4.5625 13.0625 C-4.5625 11.4125 -4.5625 9.7625 -4.5625 8.0625 C-3.5725 9.0525 -2.5825 10.0425 -1.5625 11.0625 C-0.9025 10.7325 -0.2425 10.4025 0.4375 10.0625 C-0.3875 9.505625 -1.2125 8.94875 -2.0625 8.375 C-4.5625 6.0625 -4.5625 6.0625 -4.9375 3.375 C-4.32883883 -0.37841054 -4.02063137 0.07053739 0 0 Z " fill="#000000" transform="translate(231.5625,108.9375)"/>
<path d="M0 0 C1.134375 0.020625 2.26875 0.04125 3.4375 0.0625 C3.4375 1.3825 3.4375 2.7025 3.4375 4.0625 C0.9625 3.0725 0.9625 3.0725 -1.5625 2.0625 C-0.3559375 3.17625 -0.3559375 3.17625 0.875 4.3125 C4.4375 8.13567073 4.4375 8.13567073 4.4375 11.0625 C3.375 12.875 3.375 12.875 1.4375 14.0625 C-1.75 13.75 -1.75 13.75 -4.5625 13.0625 C-4.5625 11.4125 -4.5625 9.7625 -4.5625 8.0625 C-3.5725 9.0525 -2.5825 10.0425 -1.5625 11.0625 C-0.9025 10.7325 -0.2425 10.4025 0.4375 10.0625 C-0.3875 9.505625 -1.2125 8.94875 -2.0625 8.375 C-4.5625 6.0625 -4.5625 6.0625 -4.9375 3.375 C-4.32883883 -0.37841054 -4.02063137 0.07053739 0 0 Z " fill="#000000" transform="translate(358.5625,108.9375)"/>
<path d="M0 0 C0 0.99 0 1.98 0 3 C0.99 3 1.98 3 3 3 C3 3.66 3 4.32 3 5 C2.01 5 1.02 5 0 5 C0 7.97 0 10.94 0 14 C1.32 14.33 2.64 14.66 4 15 C3.34 15.66 2.68 16.32 2 17 C-0.5625 16.75 -0.5625 16.75 -3 16 C-4.25200576 13.49598848 -4.43965401 11.34453013 -4.75 8.5625 C-4.86859375 7.59441406 -4.9871875 6.62632813 -5.109375 5.62890625 C-5 3 -5 3 -3.640625 1.15234375 C-2 0 -2 0 0 0 Z " fill="#000000" transform="translate(471,106)"/>
<path d="M0 0 C0.33 0.99 0.66 1.98 1 3 C2.32 3 3.64 3 5 3 C5 3.66 5 4.32 5 5 C3.68 5 2.36 5 1 5 C1.254496 6.48206495 1.52911762 7.96068615 1.8125 9.4375 C1.96332031 10.26121094 2.11414063 11.08492187 2.26953125 11.93359375 C2.51058594 12.61550781 2.75164062 13.29742187 3 14 C3.99 14.33 4.98 14.66 6 15 C5.34 15.66 4.68 16.32 4 17 C-0.55555556 16.44444444 -0.55555556 16.44444444 -2 15 C-2.31417794 13.05093313 -2.55215803 11.08928817 -2.75 9.125 C-2.92789062 7.52011719 -2.92789062 7.52011719 -3.109375 5.8828125 C-3 3 -3 3 -1.515625 1.1171875 C-0.76539063 0.56417969 -0.76539063 0.56417969 0 0 Z " fill="#000000" transform="translate(360,144)"/>
<path d="M0 0 C1.66611905 -0.042721 3.33382885 -0.04063832 5 0 C6 1 6 1 6.09765625 2.84765625 C6.06510417 4.8984375 6.03255208 6.94921875 6 9 C4 10 4 10 0 9 C0 6.03 0 3.06 0 0 Z " fill="#FEFEFF" transform="translate(396,149)"/>
<path d="M0 0 C1.67542976 0.28604898 3.34385343 0.61781233 5 1 C5 3.31 5 5.62 5 8 C3.35 8.33 1.7 8.66 0 9 C-2 6 -2 6 -1.6875 3.375 C-1 1 -1 1 0 0 Z " fill="#FEFEFF" transform="translate(229,149)"/>
<path d="M0 0 C3.53571429 0.53571429 3.53571429 0.53571429 5 2 C4.71269945 4.33944736 4.38063221 6.6739143 4 9 C2.35 9 0.7 9 -1 9 C-1.625 5.625 -1.625 5.625 -2 2 C-1.34 1.34 -0.68 0.68 0 0 Z " fill="#FEFEFF" transform="translate(41,149)"/>
<path d="M0 0 C1.67542976 0.28604898 3.34385343 0.61781233 5 1 C5 3.31 5 5.62 5 8 C3.35 8.33 1.7 8.66 0 9 C-2 6 -2 6 -1.6875 3.375 C-1 1 -1 1 0 0 Z " fill="#FEFEFF" transform="translate(480,111)"/>
<path d="M0 0 C1.65 0.33 3.3 0.66 5 1 C5.625 3.875 5.625 3.875 6 7 C5.34 7.66 4.68 8.32 4 9 C2.68 9 1.36 9 0 9 C-1.125 2.25 -1.125 2.25 0 0 Z " fill="#FEFEFF" transform="translate(86,149)"/>
<path d="M0 0 C3.875 0.875 3.875 0.875 5 2 C4.71269945 4.33944736 4.38063221 6.6739143 4 9 C3.01 9.33 2.02 9.66 1 10 C0.34 9.67 -0.32 9.34 -1 9 C-1.75 6.125 -1.75 6.125 -2 3 C-1.34 2.01 -0.68 1.02 0 0 Z " fill="#FEFEFF" transform="translate(288,111)"/>
<path d="M0 0 C1.32 0 2.64 0 4 0 C5.35439668 2.70879335 5.06501451 5.00933268 5 8 C3.34385343 8.38218767 1.67542976 8.71395102 0 9 C-1 8 -1 8 -1.125 4.5 C-1 1 -1 1 0 0 Z " fill="#FEFEFF" transform="translate(563,111)"/>
<path d="M0 0 C3.69230769 0.69230769 3.69230769 0.69230769 5 2 C4.71269945 4.33944736 4.38063221 6.6739143 4 9 C3.01 9.33 2.02 9.66 1 10 C-1 8 -1 8 -1.1875 4.4375 C-1 1 -1 1 0 0 Z " fill="#FEFEFF" transform="translate(370,111)"/>
<path d="M0 0 C0.99 0 1.98 0 3 0 C3 0.99 3 1.98 3 3 C3.66 2.01 4.32 1.02 5 0 C5.99 0.33 6.98 0.66 8 1 C7.67 1.66 7.34 2.32 7 3 C7 4.32 7 5.64 7 7 C4.36 7 1.72 7 -1 7 C-0.67 4.69 -0.34 2.38 0 0 Z " fill="#000000" transform="translate(37,102)"/>
<path d="M0 0 C2.64 0 5.28 0 8 0 C8 1.65 8 3.3 8 5 C6.02 5.99 6.02 5.99 4 7 C4 6.01 4 5.02 4 4 C3.54625 4.495 3.0925 4.99 2.625 5.5 C1 7 1 7 -1 7 C-0.7525 6.1028125 -0.7525 6.1028125 -0.5 5.1875 C0.1114124 2.88655664 0.1114124 2.88655664 0 0 Z " fill="#000000" transform="translate(453,140)"/>
<path d="M0 0 C4.875 0.875 4.875 0.875 6 2 C6.04063832 3.66617115 6.042721 5.33388095 6 7 C4.02 7 2.04 7 0 7 C0 4.69 0 2.38 0 0 Z " fill="#FEFEFF" transform="translate(52,113)"/>
<path d="M0 0 C2.97 0.495 2.97 0.495 6 1 C6 2.32 6 3.64 6 5 C4.02 5 2.04 5 0 5 C0 3.35 0 1.7 0 0 Z " fill="#FEFEFF" transform="translate(304,142)"/>
<path d="M0 0 C1.32 0.33 2.64 0.66 4 1 C4.33 2.32 4.66 3.64 5 5 C3.35 5.33 1.7 5.66 0 6 C0 4.02 0 2.04 0 0 Z " fill="#FEFEFF" transform="translate(52,105)"/>
<path d="M0 0 C1.32 0 2.64 0 4 0 C4.25 2.3125 4.25 2.3125 4 5 C2 6.8125 2 6.8125 0 8 C0 5.33333333 0 2.66666667 0 0 Z " fill="#000000" transform="translate(212,157)"/>
<path d="M0 0 C1.98 0.66 3.96 1.32 6 2 C6 2.66 6 3.32 6 4 C1.25 5.125 1.25 5.125 -1 4 C-0.67 2.68 -0.34 1.36 0 0 Z " fill="#FEFEFF" transform="translate(102,122)"/>
<path d="M0 0 C1.98 0.66 3.96 1.32 6 2 C5.01 3.485 5.01 3.485 4 5 C2.35 4.67 0.7 4.34 -1 4 C-0.67 2.68 -0.34 1.36 0 0 Z " fill="#FEFEFF" transform="translate(140,122)"/>
<path d="M0 0 C1.65 0.33 3.3 0.66 5 1 C4.67 2.32 4.34 3.64 4 5 C2.35 4.67 0.7 4.34 -1 4 C-0.67 2.68 -0.34 1.36 0 0 Z " fill="#FEFEFF" transform="translate(167,160)"/>
</svg>
