<?xml version="1.0" standalone="no"?>
<!DOCTYPE svg PUBLIC "-//W3C//DTD SVG 20010904//EN"
 "http://www.w3.org/TR/2001/REC-SVG-20010904/DTD/svg10.dtd">
<svg version="1.0" xmlns="http://www.w3.org/2000/svg"
 width="427.000000pt" height="434.000000pt" viewBox="0 0 427.000000 434.000000"
 preserveAspectRatio="xMidYMid meet">

<g transform="translate(0.000000,434.000000) scale(0.100000,-0.100000)"
fill="#000000" stroke="none">
<path d="M1111 3236 c-910 -910 -1004 -1007 -1004 -1036 0 -29 93 -125 999
-1030 707 -707 1007 -1001 1028 -1006 27 -6 75 40 1037 1002 800 800 1009
1014 1009 1034 0 37 -2003 2040 -2040 2040 -20 0 -235 -210 -1029 -1004z
m1994 -631 l0 -180 -58 -6 c-52 -6 -64 -12 -103 -50 -107 -105 -111 -220 -12
-325 50 -53 69 -62 143 -67 l30 -2 0 -180 0 -180 -965 0 -965 0 0 180 0 180
30 2 c74 5 93 14 143 67 99 105 95 220 -12 325 -39 38 -51 44 -103 50 l-58 6
-3 170 c-1 93 0 175 2 182 4 11 189 13 968 11 l963 -3 0 -180z"/>
<path d="M1247 2644 c-2 -36 -3 -83 0 -105 5 -33 10 -40 42 -50 97 -32 183
-139 206 -256 23 -118 -95 -298 -216 -328 -33 -8 -40 -44 -32 -145 l6 -70 558
0 559 0 -3 78 -2 77 35 0 35 0 3 -77 3 -78 294 0 295 0 1 38 c0 20 2 46 5 57
2 11 1 41 -2 67 -5 40 -9 47 -32 53 -122 30 -240 209 -217 328 23 117 109 224
206 256 32 10 37 17 42 50 3 22 2 69 0 105 l-6 66 -293 0 -293 0 -3 -77 -3
-78 -35 0 -35 0 3 78 2 77 -558 0 -559 0 -6 -66z m1193 -280 l0 -95 -37 3
c-43 4 -46 12 -37 115 5 69 7 72 32 75 15 2 30 2 35 0 4 -2 7 -46 7 -98z m-2
-330 l-3 -97 -32 -2 c-31 -3 -33 -1 -35 34 -5 109 -5 147 -1 154 2 4 20 7 39
7 l35 0 -3 -96z"/>
</g>
</svg>
