<?xml version="1.0" standalone="no"?>
<!DOCTYPE svg PUBLIC "-//W3C//DTD SVG 20010904//EN"
 "http://www.w3.org/TR/2001/REC-SVG-20010904/DTD/svg10.dtd">
<svg version="1.0" xmlns="http://www.w3.org/2000/svg"
 width="681.000000pt" height="251.000000pt" viewBox="0 0 681.000000 251.000000"
 preserveAspectRatio="xMidYMid meet">

<g transform="translate(0.000000,251.000000) scale(0.100000,-0.100000)"
fill="#000000" stroke="none">
<path d="M1917 1883 c865 -2 2281 -2 3145 0 865 1 158 2 -1572 2 -1730 0
-2437 -1 -1573 -2z"/>
<path d="M370 1469 c-12 -21 -5 -58 8 -45 7 7 13 66 6 66 -2 0 -8 -9 -14 -21z"/>
<path d="M422 1478 c-14 -14 -16 -44 -3 -53 5 -3 13 0 17 6 3 6 1 15 -7 19
-10 7 -10 11 0 24 16 19 10 21 -7 4z"/>
<path d="M1606 1475 c-9 -9 -16 -25 -16 -35 0 -11 -8 -24 -17 -29 -17 -10 -17
-10 0 -11 13 0 17 -9 17 -43 0 -24 -5 -48 -12 -55 -9 -9 -4 -12 22 -12 26 0
31 3 22 12 -7 7 -12 31 -12 54 0 36 3 43 23 47 l22 4 -23 2 c-20 1 -23 6 -20
34 3 31 12 36 45 26 6 -2 12 1 12 6 3 17 -46 17 -63 0z"/>
<path d="M2920 1480 c-10 -6 -11 -10 -2 -10 7 0 12 -13 12 -30 0 -27 -2 -29
-29 -24 -56 11 -91 -54 -56 -103 13 -19 25 -22 70 -21 48 1 53 3 44 19 -5 10
-9 54 -9 98 0 82 -3 89 -30 71z m-1 -84 c17 -20 10 -77 -11 -89 -24 -16 -48 8
-48 47 0 49 34 73 59 42z"/>
<path d="M5060 1480 c-10 -6 -11 -10 -2 -10 8 0 12 -24 12 -84 0 -58 -4 -86
-12 -89 -7 -3 3 -6 22 -6 26 -1 31 2 22 11 -26 26 -5 108 27 108 29 0 46 -102
19 -113 -7 -3 3 -6 22 -6 26 -1 31 2 22 11 -7 7 -12 31 -12 54 0 54 -20 72
-61 57 l-29 -11 0 44 c0 45 -4 51 -30 34z"/>
<path d="M770 1464 c0 -8 5 -12 10 -9 6 3 10 10 10 16 0 5 -4 9 -10 9 -5 0
-10 -7 -10 -16z"/>
<path d="M1142 1469 c2 -6 8 -10 13 -10 5 0 11 4 13 10 2 6 -4 11 -13 11 -9 0
-15 -5 -13 -11z"/>
<path d="M1810 1464 c0 -8 5 -12 10 -9 6 3 10 10 10 16 0 5 -4 9 -10 9 -5 0
-10 -7 -10 -16z"/>
<path d="M5512 1469 c2 -6 8 -10 13 -10 5 0 11 4 13 10 2 6 -4 11 -13 11 -9 0
-15 -5 -13 -11z"/>
<path d="M478 1463 c8 -3 12 -29 12 -78 0 -60 -3 -76 -17 -84 -14 -8 -1 -10
49 -11 47 0 71 4 82 16 22 22 20 50 -6 68 -17 12 -20 18 -10 28 17 17 15 55
-4 62 -9 3 -39 6 -67 5 -29 0 -46 -3 -39 -6z m90 -35 c2 -19 -2 -28 -17 -33
-29 -9 -41 1 -41 36 0 27 3 30 28 27 21 -2 28 -9 30 -30z m16 -70 c14 -23 -3
-52 -34 -56 -27 -4 -40 12 -40 51 0 26 3 28 31 25 18 -2 37 -11 43 -20z"/>
<path d="M3070 1426 c-8 -11 -13 -34 -12 -59 5 -75 6 -75 80 -75 37 0 61 2 55
5 -31 12 -7 110 25 101 5 -2 9 2 9 7 -1 6 -9 9 -17 7 -8 -2 -31 -3 -50 -3 -19
0 -29 -2 -22 -5 7 -4 12 -25 12 -53 0 -46 -1 -48 -30 -49 -29 -1 -30 0 -30 48
0 38 4 50 18 53 15 4 15 5 0 6 -9 0 -18 8 -20 18 -3 15 -4 15 -18 -1z"/>
<path d="M4682 1427 c-5 -7 -6 -39 -3 -72 5 -48 10 -61 25 -63 10 -2 23 1 28
6 7 7 4 10 -8 9 -16 -2 -20 6 -22 45 -2 32 1 47 10 50 10 2 10 7 -4 20 -12 12
-19 14 -26 5z"/>
<path d="M4984 1426 c-6 -6 -8 -36 -4 -71 5 -58 6 -60 35 -62 17 -1 23 1 14 3
-18 5 -29 33 -29 77 0 21 5 27 23 28 14 0 17 2 7 6 -8 3 -20 11 -25 18 -8 9
-13 9 -21 1z"/>
<path d="M5430 1426 c-8 -11 -13 -34 -12 -59 5 -75 6 -75 80 -75 37 0 61 2 55
5 -9 3 -13 26 -13 65 0 51 -2 59 -16 54 -9 -3 -21 -6 -27 -6 -6 0 -3 -6 7 -13
13 -9 17 -23 14 -52 -3 -37 -5 -40 -35 -42 l-33 -3 0 49 c0 39 4 51 18 54 15
4 15 5 0 6 -9 0 -18 8 -20 18 -3 15 -4 15 -18 -1z"/>
<path d="M655 1409 c-11 -4 -14 -8 -7 -8 8 -1 12 -18 12 -50 0 -30 -5 -51 -12
-54 -7 -3 2 -6 20 -6 29 -1 31 1 20 18 -8 13 -9 29 -2 52 8 30 14 34 47 36
l37 3 0 -43 c0 -24 -5 -48 -12 -55 -9 -9 -4 -12 22 -12 26 0 31 3 22 12 -7 7
-12 35 -12 63 l0 51 -38 0 c-22 -1 -46 -7 -55 -14 -13 -11 -16 -11 -19 1 -2
10 -9 12 -23 6z"/>
<path d="M839 1413 c0 -5 0 -30 1 -57 1 -31 -3 -52 -12 -57 -8 -6 2 -8 27 -8
22 0 34 3 28 6 -21 8 -17 90 5 101 30 16 42 3 42 -48 0 -29 -5 -50 -12 -53 -7
-3 1 -6 18 -6 l31 -1 -9 57 c-5 31 -11 60 -14 65 -8 12 -48 10 -63 -4 -11 -10
-14 -10 -18 0 -5 13 -22 17 -24 5z"/>
<path d="M1004 1403 c-17 -17 -17 -19 -3 -44 7 -15 7 -24 0 -33 -15 -17 4 -33
44 -38 22 -2 31 -9 33 -25 3 -20 -1 -23 -32 -23 -33 0 -41 7 -37 33 2 11 -17
9 -24 -3 -11 -19 16 -40 50 -40 48 0 65 9 65 34 0 30 -18 46 -51 46 -15 0 -31
5 -34 10 -3 6 4 10 18 10 29 0 62 33 53 55 -5 13 0 16 27 13 30 -3 32 -6 35
-43 3 -29 -1 -43 -14 -52 -16 -11 -13 -13 22 -12 21 0 33 3 27 6 -8 3 -13 25
-13 61 l0 57 -76 1 c-53 1 -79 -3 -90 -13z m51 -29 c0 -19 -5 -29 -15 -29 -16
0 -25 28 -16 51 10 25 31 10 31 -22z"/>
<path d="M1210 1410 c-10 -6 -11 -10 -2 -10 8 0 12 -17 12 -49 0 -30 -5 -51
-12 -54 -7 -3 3 -6 22 -6 26 -1 31 2 22 11 -18 18 -14 63 7 89 16 20 21 21 35
10 19 -16 22 -97 4 -104 -7 -3 3 -6 22 -6 26 -1 31 2 22 11 -7 7 -12 34 -12
60 0 42 -3 48 -24 54 -13 3 -34 1 -45 -6 -14 -7 -21 -7 -21 0 0 13 -10 13 -30
0z"/>
<path d="M1388 1409 c-22 -12 -23 -37 -3 -63 22 -29 69 -11 73 27 2 20 9 27
24 27 12 0 18 3 14 7 -11 11 -89 13 -108 2z m47 -35 c0 -19 -5 -29 -15 -29
-16 0 -25 28 -16 51 10 25 31 10 31 -22z"/>
<path d="M1677 1413 c-4 -3 -7 -13 -7 -21 0 -12 3 -12 19 2 11 10 25 15 30 11
21 -12 11 -33 -25 -54 -23 -14 -34 -27 -32 -39 4 -20 46 -29 62 -12 8 9 6 11
-11 5 -19 -5 -23 -2 -23 14 0 11 9 25 20 31 17 9 20 8 20 -9 0 -34 11 -51 34
-50 11 0 15 3 9 6 -8 3 -13 23 -13 52 0 26 -5 52 -12 59 -13 13 -60 16 -71 5z"/>
<path d="M1800 1410 c-10 -6 -11 -10 -2 -10 16 0 16 -82 0 -98 -9 -9 -4 -12
22 -12 26 0 31 3 22 12 -7 7 -12 36 -12 65 0 54 -4 60 -30 43z"/>
<path d="M1937 1413 c-4 -4 -24 -6 -45 -6 -20 1 -31 0 -24 -3 7 -4 12 -25 12
-54 0 -29 -5 -50 -12 -53 -7 -3 5 -5 27 -5 22 0 34 2 28 5 -30 12 -7 111 23
101 5 -2 10 1 12 7 4 12 -12 18 -21 8z"/>
<path d="M1989 1413 c0 -5 0 -30 1 -57 1 -31 -3 -52 -12 -57 -8 -6 2 -8 27 -8
22 0 34 3 28 6 -21 8 -17 90 5 101 30 16 42 3 42 -48 0 -29 -5 -50 -12 -53 -7
-3 1 -6 18 -6 l31 -1 -9 57 c-5 31 -11 60 -14 65 -8 12 -48 10 -63 -4 -11 -10
-14 -10 -18 0 -5 13 -22 17 -24 5z"/>
<path d="M2162 1404 c-28 -19 -30 -74 -4 -97 24 -22 66 -22 83 1 11 14 11 15
-1 5 -22 -20 -48 -15 -66 12 -21 32 -11 45 37 45 40 0 51 14 27 38 -17 17 -49
15 -76 -4z m56 -12 c2 -7 -7 -12 -22 -12 -27 0 -35 15 -13 23 17 7 30 3 35
-11z"/>
<path d="M2279 1399 c-11 -21 -8 -26 20 -49 17 -15 31 -32 31 -38 0 -18 -31
-14 -46 6 -12 16 -13 16 -14 -4 0 -18 6 -21 38 -20 31 1 38 5 40 25 3 16 -6
31 -29 50 -23 19 -29 30 -20 35 6 4 19 2 28 -6 14 -11 16 -11 11 2 -8 25 -45
24 -59 -1z"/>
<path d="M2392 1408 c-20 -20 -13 -46 18 -65 34 -20 38 -31 14 -40 -11 -4 -22
1 -30 12 -13 18 -14 18 -14 -3 0 -17 6 -22 24 -22 62 0 75 35 26 72 -16 12
-30 28 -30 35 0 19 27 16 39 -4 10 -17 10 -16 11 2 0 24 -39 32 -58 13z"/>
<path d="M2557 1413 c-4 -3 -7 -13 -7 -21 0 -12 3 -12 19 2 11 10 25 15 30 11
21 -12 11 -33 -25 -54 -23 -14 -34 -27 -32 -39 4 -20 46 -29 62 -12 8 9 6 11
-11 5 -19 -5 -23 -2 -23 14 0 11 9 25 20 31 17 9 20 8 20 -9 0 -34 11 -51 34
-50 11 0 15 3 9 6 -8 3 -13 23 -13 52 0 26 -5 52 -12 59 -13 13 -60 16 -71 5z"/>
<path d="M2681 1411 c-9 -6 -10 -11 -2 -15 15 -10 14 -79 -1 -94 -9 -9 -4 -12
22 -11 19 0 29 3 23 6 -8 3 -13 23 -13 48 0 35 5 47 21 56 31 16 42 -1 38 -60
-4 -51 -4 -51 26 -50 17 0 24 3 18 6 -8 2 -13 22 -13 44 0 22 -5 49 -10 60
-11 20 -54 26 -65 9 -5 -7 -11 -8 -19 -1 -6 5 -18 6 -25 2z"/>
<path d="M3261 1411 c-8 -5 -10 -14 -6 -21 6 -10 11 -9 21 5 7 10 20 15 29 12
26 -10 17 -32 -20 -50 -23 -11 -35 -24 -35 -37 0 -26 27 -37 51 -22 11 7 20 8
24 2 3 -6 14 -10 23 -10 12 0 13 3 4 12 -7 7 -12 33 -12 59 0 33 -5 49 -16 53
-22 8 -47 7 -63 -3z m59 -70 c0 -26 -27 -48 -42 -33 -9 9 -7 17 7 32 23 25 35
26 35 1z"/>
<path d="M3389 1413 c0 -5 0 -30 1 -57 1 -31 -3 -52 -12 -57 -8 -6 2 -8 27 -8
22 0 34 3 28 6 -21 8 -17 90 5 101 30 16 42 3 42 -48 0 -29 -5 -50 -12 -53 -7
-3 1 -6 18 -6 l31 -1 -9 57 c-5 31 -11 60 -14 65 -8 12 -48 10 -63 -4 -11 -10
-14 -10 -18 0 -5 13 -22 17 -24 5z"/>
<path d="M3552 1408 c-19 -19 -14 -36 18 -60 17 -12 30 -28 30 -35 0 -19 -37
-16 -49 5 -9 15 -10 15 -11 -4 0 -18 6 -21 37 -20 52 1 57 31 12 68 -25 21
-30 31 -21 40 8 8 15 8 28 -3 15 -12 17 -12 12 1 -6 19 -40 24 -56 8z"/>
<path d="M3651 1411 c-9 -6 -10 -11 -2 -15 15 -10 14 -139 -1 -154 -9 -9 -3
-12 27 -12 32 1 37 3 23 11 -10 5 -18 20 -18 33 0 19 4 22 30 18 39 -6 70 21
70 60 0 50 -57 87 -88 56 -9 -9 -12 -9 -12 0 0 14 -10 15 -29 3z m87 -13 c13
-13 16 -56 6 -82 -7 -19 -35 -21 -52 -4 -26 26 -9 98 23 98 6 0 16 -5 23 -12z"/>
<path d="M3811 1406 c-8 -9 -8 -16 -2 -20 5 -4 14 1 19 10 6 10 16 15 26 11
23 -9 20 -36 -7 -46 -29 -11 -51 -37 -44 -54 4 -10 31 -14 98 -14 52 -1 88 1
82 4 -31 12 -7 110 25 101 5 -2 9 2 9 7 -1 6 -9 9 -17 7 -8 -2 -31 -3 -50 -3
-19 0 -29 -2 -22 -5 7 -4 12 -25 12 -55 0 -42 -3 -49 -20 -49 -21 0 -27 17
-32 80 -3 31 -6 35 -34 38 -18 2 -36 -3 -43 -12z m45 -94 c-13 -13 -18 -14
-28 -3 -11 10 -8 16 12 33 23 19 25 19 28 3 2 -10 -3 -25 -12 -33z"/>
<path d="M4062 1404 c-28 -19 -30 -74 -4 -97 24 -22 66 -22 83 1 11 14 11 15
-1 5 -22 -20 -48 -15 -66 12 -21 32 -11 45 37 45 40 0 51 14 27 38 -17 17 -49
15 -76 -4z m56 -12 c2 -7 -7 -12 -22 -12 -27 0 -35 15 -13 23 17 7 30 3 35
-11z"/>
<path d="M4181 1411 c-9 -6 -10 -11 -2 -15 15 -10 14 -79 -1 -94 -9 -9 -4 -12
23 -11 18 0 28 3 22 6 -8 3 -13 23 -13 48 0 35 5 47 21 56 31 16 42 -1 38 -60
-4 -51 -4 -51 26 -50 17 0 24 3 18 6 -8 2 -13 22 -13 44 0 22 -5 49 -10 60
-11 20 -54 26 -65 9 -5 -7 -11 -8 -19 -1 -6 5 -18 6 -25 2z"/>
<path d="M4350 1400 c-25 -25 -26 -72 -2 -93 20 -18 67 -23 76 -8 4 5 -3 7
-14 4 -29 -8 -50 14 -50 52 0 42 21 61 49 43 11 -7 24 -9 28 -5 4 5 1 12 -7
17 -25 16 -59 11 -80 -10z"/>
<path d="M4482 1356 c33 -67 32 -94 -2 -103 -26 -7 -26 -23 0 -23 15 0 26 13
40 46 11 25 30 68 43 95 l24 49 -25 0 c-19 0 -22 -3 -14 -13 8 -9 6 -23 -6
-51 l-18 -39 -18 41 c-10 22 -15 45 -12 51 5 7 -3 11 -18 11 l-26 0 32 -64z"/>
<path d="M4771 1394 c-12 -15 -21 -35 -21 -45 0 -28 36 -59 68 -59 59 0 87 76
42 112 -32 26 -65 22 -89 -8z m73 0 c29 -28 13 -94 -22 -94 -27 0 -42 20 -42
55 0 50 33 71 64 39z"/>
<path d="M5239 1402 c-28 -24 -31 -79 -4 -98 22 -16 71 -18 80 -4 4 7 -2 9
-18 5 -28 -7 -57 16 -57 46 0 16 7 19 45 19 48 0 55 9 29 34 -21 21 -47 20
-75 -2z m59 -9 c2 -8 -6 -13 -22 -13 -25 0 -33 10 -19 24 10 10 36 3 41 -11z"/>
<path d="M5585 1409 c-11 -4 -14 -8 -7 -8 8 -1 12 -24 12 -80 0 -54 -4 -81
-12 -84 -7 -3 5 -6 27 -6 32 0 36 2 23 10 -10 5 -18 20 -18 32 0 20 4 22 33
19 43 -5 70 23 65 69 -4 43 -47 71 -77 52 -11 -7 -21 -9 -23 -4 -2 5 -12 5
-23 0z m91 -24 c22 -34 7 -80 -27 -80 -31 0 -48 43 -31 80 15 32 37 32 58 0z"/>
<path d="M1370 1315 c0 -14 14 -20 65 -27 12 -2 20 -11 20 -23 0 -16 -7 -20
-35 -20 -27 0 -35 4 -34 18 1 9 -4 17 -12 17 -18 0 -18 -24 0 -39 21 -17 87
-10 100 12 15 24 -4 51 -40 55 -16 2 -33 8 -38 13 -15 13 -26 11 -26 -6z"/>
<path d="M547 1092 c-10 -10 -17 -28 -17 -40 0 -11 -8 -23 -17 -25 -17 -4 -17
-5 0 -6 14 -1 17 -10 17 -50 0 -30 -5 -51 -12 -54 -7 -3 5 -6 27 -6 32 0 36 2
23 10 -13 7 -18 23 -18 54 0 40 3 45 23 46 l22 0 -22 9 c-26 11 -30 42 -8 60
12 10 18 10 30 0 17 -14 31 -8 20 9 -10 17 -50 13 -68 -7z"/>
<path d="M1337 1093 c-9 -11 -17 -29 -17 -41 0 -11 -8 -23 -17 -25 -17 -4 -17
-5 0 -6 14 -1 17 -10 17 -50 0 -30 -5 -51 -12 -54 -7 -3 5 -6 27 -6 32 0 36 2
23 10 -13 7 -18 23 -18 54 0 40 3 45 23 46 l22 0 -22 9 c-26 10 -30 42 -9 59
10 8 20 8 42 -4 18 -9 32 -11 38 -5 13 13 6 18 -40 25 -31 6 -43 3 -57 -12z"/>
<path d="M3027 1092 c-10 -10 -17 -28 -17 -40 0 -11 -8 -23 -17 -25 -17 -4
-17 -5 0 -6 14 -1 17 -10 17 -50 0 -30 -5 -51 -12 -54 -7 -3 5 -6 27 -6 32 0
36 2 23 10 -13 7 -18 23 -18 54 0 40 3 45 23 46 l22 0 -22 9 c-26 11 -30 42
-8 60 12 10 18 10 30 0 17 -14 31 -8 20 9 -10 17 -50 13 -68 -7z"/>
<path d="M3116 1088 c-9 -12 -16 -30 -16 -39 0 -10 -6 -20 -12 -22 -10 -4 -10
-6 0 -6 8 -1 12 -18 12 -50 0 -30 -5 -51 -12 -54 -7 -3 5 -6 27 -6 26 0 35 2
26 8 -7 5 -16 29 -18 55 -5 43 -4 46 18 47 l24 0 -23 10 c-18 7 -22 14 -17 31
11 35 21 41 44 26 18 -11 21 -22 21 -90 0 -52 -4 -78 -12 -81 -7 -3 5 -6 27
-6 22 0 35 3 28 7 -8 5 -13 41 -15 97 l-3 90 -42 3 c-33 2 -44 -1 -57 -20z"/>
<path d="M4530 1095 c0 -8 5 -15 11 -15 8 0 8 -5 -1 -15 -7 -9 -8 -15 -2 -15
11 0 22 23 22 46 0 8 -7 14 -15 14 -8 0 -15 -7 -15 -15z"/>
<path d="M4583 1080 c2 -25 4 -27 16 -15 7 7 11 21 8 29 -11 27 -26 18 -24
-14z"/>
<path d="M4022 1091 c2 -7 7 -12 11 -12 12 1 9 15 -3 20 -7 2 -11 -2 -8 -8z"/>
<path d="M3586 1041 c-11 -12 -14 -21 -8 -21 6 0 12 -23 14 -52 2 -42 7 -54
22 -56 10 -2 23 1 29 7 7 7 3 8 -12 4 -19 -5 -21 -2 -21 45 0 40 4 52 18 55
15 4 15 5 0 6 -9 0 -18 8 -20 17 -3 14 -6 13 -22 -5z"/>
<path d="M3932 1047 c-5 -7 -6 -39 -3 -72 5 -48 10 -61 25 -63 10 -2 23 1 28
6 7 7 4 10 -8 9 -16 -2 -20 6 -22 45 -2 32 1 47 10 50 10 2 10 7 -4 20 -12 12
-19 14 -26 5z"/>
<path d="M380 1020 c-11 -11 -20 -31 -20 -45 0 -55 77 -87 113 -47 37 41 6
112 -48 112 -14 0 -34 -9 -45 -20z m76 -15 c14 -21 15 -31 6 -51 -24 -51 -72
-38 -72 20 0 57 38 74 66 31z"/>
<path d="M696 975 c35 -68 35 -90 3 -100 -22 -7 -26 -25 -5 -25 19 0 29 15 61
90 16 36 35 73 43 83 14 15 13 17 -11 17 -20 0 -24 -4 -20 -19 3 -10 -3 -33
-12 -52 l-17 -33 -15 35 c-8 18 -12 42 -9 51 3 14 -2 18 -23 18 l-28 0 33 -65z"/>
<path d="M842 1024 c-28 -19 -30 -74 -4 -97 25 -23 68 -21 92 3 58 58 -20 142
-88 94z m66 -6 c17 -17 15 -73 -3 -88 -39 -32 -81 29 -51 75 18 27 36 31 54
13z"/>
<path d="M968 1034 c7 -3 12 -25 12 -53 0 -26 5 -52 12 -59 15 -15 54 -16 63
-2 4 6 -4 9 -17 7 -21 -2 -23 3 -28 53 -5 50 -7 55 -30 57 -14 1 -19 0 -12 -3z"/>
<path d="M1060 1025 c6 -8 11 -31 10 -52 -4 -57 -2 -63 22 -63 17 0 19 3 10
12 -7 7 -12 36 -12 65 0 47 -2 53 -21 53 -18 0 -19 -3 -9 -15z"/>
<path d="M1135 1029 c-11 -4 -14 -8 -7 -8 8 -1 12 -18 12 -50 0 -30 -5 -51
-12 -54 -7 -3 1 -6 18 -6 28 -1 30 1 26 29 -7 49 6 83 28 77 24 -6 38 11 16
19 -9 4 -23 0 -32 -7 -10 -8 -18 -9 -22 -2 -4 6 -15 7 -27 2z"/>
<path d="M1400 1030 c-10 -6 -11 -10 -2 -10 8 0 12 -17 12 -49 0 -30 -5 -51
-12 -54 -7 -3 5 -5 27 -5 22 0 34 2 28 5 -9 3 -13 26 -13 64 0 60 -8 70 -40
49z"/>
<path d="M1481 1031 c-9 -6 -10 -11 -2 -15 15 -10 14 -79 -1 -94 -9 -9 -4 -12
23 -11 18 0 28 3 22 6 -8 3 -13 23 -13 48 0 35 5 47 21 56 31 16 42 -1 38 -60
-4 -51 -4 -51 26 -50 17 0 24 3 18 6 -8 2 -13 22 -13 44 0 22 -5 49 -10 60
-11 20 -54 26 -65 9 -5 -7 -11 -8 -19 -1 -6 5 -18 6 -25 2z"/>
<path d="M1651 1026 c-6 -6 -9 -34 -8 -61 2 -49 2 -50 40 -56 44 -7 52 -13 43
-34 -9 -24 -72 -17 -70 8 1 9 -4 17 -12 17 -19 0 -18 -36 2 -44 26 -10 79 -7
92 6 30 30 1 68 -52 68 -36 0 -32 14 7 25 25 8 33 16 35 38 2 19 9 27 23 27
11 0 18 4 15 8 -8 14 -103 12 -115 -2z m54 -15 c6 -20 -3 -51 -15 -51 -16 0
-31 30 -25 50 8 25 32 26 40 1z"/>
<path d="M1790 1020 c-39 -39 -15 -110 37 -110 28 0 53 10 53 21 0 5 -9 4 -20
-3 -27 -17 -54 0 -58 36 -3 24 -1 26 37 26 42 0 53 14 29 38 -18 18 -56 14
-78 -8z m60 -5 c11 -13 8 -15 -20 -15 -28 0 -31 2 -20 15 7 8 16 15 20 15 4 0
13 -7 20 -15z"/>
<path d="M1915 1029 c-11 -4 -14 -8 -7 -8 8 -1 12 -18 12 -50 0 -30 -5 -51
-12 -54 -7 -3 2 -6 20 -6 29 -1 31 1 20 18 -17 27 1 86 27 86 10 0 20 6 23 13
6 18 -23 15 -39 -4 -11 -14 -14 -14 -19 -1 -3 10 -11 12 -25 6z"/>
<path d="M2033 1033 c-24 -9 -14 -49 18 -72 23 -17 28 -26 20 -34 -9 -9 -17
-8 -32 2 -18 10 -20 10 -17 -1 7 -19 59 -16 72 5 9 15 6 23 -22 45 -34 28 -42
52 -18 52 8 0 16 -6 19 -12 2 -7 8 -9 13 -5 16 16 -26 32 -53 20z"/>
<path d="M2261 1014 c-12 -15 -21 -35 -21 -45 0 -28 36 -59 68 -59 59 0 87 76
42 112 -32 26 -65 22 -89 -8z m73 0 c29 -28 13 -94 -22 -94 -27 0 -42 20 -42
55 0 50 33 71 64 39z"/>
<path d="M2400 1030 c-10 -6 -11 -10 -2 -10 8 0 12 -17 12 -49 0 -30 -5 -51
-12 -54 -7 -3 3 -6 22 -6 26 -1 31 2 22 11 -18 18 -14 63 7 89 16 20 21 21 35
10 19 -16 22 -97 4 -104 -7 -3 3 -6 22 -6 26 -1 31 2 22 11 -7 7 -12 34 -12
60 0 42 -3 48 -24 54 -13 3 -34 1 -45 -6 -14 -7 -21 -7 -21 0 0 13 -10 13 -30
0z"/>
<path d="M2579 1022 c-28 -24 -31 -79 -4 -98 22 -16 71 -18 80 -4 4 7 -2 9
-18 5 -28 -7 -57 16 -57 46 0 16 7 19 45 19 48 0 55 9 29 34 -21 21 -47 20
-75 -2z m59 -9 c2 -8 -6 -13 -22 -13 -25 0 -33 10 -19 24 10 10 36 3 41 -11z"/>
<path d="M2765 1029 c-11 -4 -14 -8 -7 -8 8 -1 12 -18 12 -50 0 -30 -5 -51
-12 -54 -7 -3 2 -6 20 -6 29 -1 31 1 20 18 -17 27 1 86 27 86 10 0 20 6 23 13
6 18 -23 15 -39 -4 -11 -14 -14 -14 -19 -1 -3 10 -11 12 -25 6z"/>
<path d="M2871 1026 c-8 -9 -8 -16 -2 -20 5 -4 14 1 19 10 6 10 16 15 26 11
23 -9 20 -36 -7 -46 -30 -12 -51 -37 -44 -54 4 -10 23 -14 62 -14 32 0 51 3
44 8 -8 4 -16 32 -19 61 -5 51 -6 53 -36 56 -18 2 -36 -3 -43 -12z m45 -94
c-13 -13 -18 -14 -28 -3 -11 10 -8 16 12 33 23 19 25 19 28 3 2 -10 -3 -25
-12 -33z"/>
<path d="M3270 1020 c-39 -39 -15 -110 37 -110 28 0 53 10 53 21 0 5 -9 4 -20
-3 -27 -17 -54 0 -58 36 -3 24 -1 26 37 26 42 0 53 14 29 38 -18 18 -56 14
-78 -8z m60 -5 c11 -13 8 -15 -20 -15 -28 0 -31 2 -20 15 7 8 16 15 20 15 4 0
13 -7 20 -15z"/>
<path d="M3461 1031 c-8 -5 -10 -14 -6 -21 6 -10 11 -9 21 5 7 10 20 15 29 12
26 -10 17 -32 -20 -50 -23 -11 -35 -24 -35 -37 0 -26 27 -37 51 -22 11 7 20 8
24 2 3 -6 14 -10 23 -10 12 0 13 3 4 12 -7 7 -12 33 -12 59 0 33 -5 49 -16 53
-22 8 -47 7 -63 -3z m59 -70 c0 -26 -27 -48 -42 -33 -9 9 -7 17 7 32 23 25 35
26 35 1z"/>
<path d="M3740 1030 c-8 -5 -12 -12 -8 -15 3 -4 16 0 27 7 18 11 23 11 31 -2
15 -23 13 -27 -20 -40 -37 -16 -52 -33 -44 -54 7 -19 45 -21 62 -4 9 9 12 9
12 0 0 -7 10 -12 22 -12 17 0 19 3 10 12 -7 7 -12 30 -12 53 0 23 -5 46 -12
53 -14 14 -47 15 -68 2z m60 -63 c0 -22 -26 -51 -38 -43 -18 11 -14 34 6 45
23 14 32 13 32 -2z"/>
<path d="M4010 1030 c-10 -6 -11 -10 -2 -10 8 0 12 -17 12 -49 0 -30 -5 -51
-12 -54 -7 -3 4 -6 25 -6 35 -1 37 0 23 15 -10 10 -16 33 -16 65 0 50 -4 56
-30 39z"/>
<path d="M4091 1031 c-9 -6 -10 -11 -2 -15 15 -10 14 -79 -1 -94 -9 -9 -4 -12
23 -11 18 0 28 3 22 6 -8 3 -13 23 -13 48 0 35 5 47 22 56 18 10 24 8 35 -7
16 -22 17 -76 1 -92 -9 -9 -4 -12 23 -11 18 0 28 3 22 6 -8 3 -13 23 -13 48 0
35 5 47 22 56 18 10 24 8 35 -7 16 -22 17 -76 1 -92 -9 -9 -4 -12 23 -11 18 0
28 3 22 6 -8 3 -13 24 -13 53 0 60 -18 79 -62 62 -22 -8 -35 -8 -48 0 -14 9
-25 9 -43 1 -14 -7 -28 -8 -33 -3 -5 5 -15 5 -23 1z"/>
<path d="M4351 1014 c-11 -15 -21 -34 -21 -43 0 -28 30 -61 55 -61 30 0 55 10
55 21 0 5 -9 4 -20 -3 -27 -17 -54 0 -58 36 -3 25 -1 26 44 26 46 0 46 0 32
23 -23 33 -61 34 -87 1z m67 -1 c2 -9 -7 -13 -28 -13 -28 0 -31 2 -20 15 15
18 41 16 48 -2z"/>
<path d="M2124 929 c-3 -6 -1 -15 7 -19 10 -7 10 -12 -2 -27 -13 -16 -13 -17
4 -4 9 7 17 24 17 37 0 25 -14 32 -26 13z"/>
<path d="M4470 926 c0 -9 7 -16 16 -16 17 0 14 22 -4 28 -7 2 -12 -3 -12 -12z"/>
<path d="M1917 443 c865 -2 2281 -2 3145 0 865 1 158 2 -1572 2 -1730 0 -2437
-1 -1573 -2z"/>
</g>
</svg>
