<?xml version="1.0" encoding="UTF-8"?>
<svg version="1.1" xmlns="http://www.w3.org/2000/svg" width="427" height="434">
<path d="M0 0 C140.91 0 281.82 0 427 0 C427 143.22 427 286.44 427 434 C286.09 434 145.18 434 0 434 C0 290.78 0 147.56 0 0 Z " fill="#FCFCFD" transform="translate(0,0)"/>
<path d="M0 0 C4.88253209 1.54417453 7.81591234 4.94090222 11.3522644 8.53915787 C12.17818498 9.3557185 13.00410555 10.17227913 13.85505402 11.01358402 C16.14426808 13.28298956 18.41952397 15.56539674 20.68953466 17.85398197 C23.14088621 20.31889323 25.60941756 22.76649407 28.07579041 25.21635818 C32.9044807 30.01834641 37.71678237 34.83644296 42.52343564 39.66047926 C46.42962314 43.58020835 50.34161701 47.49405243 54.25784683 51.40374756 C54.8148815 51.95986283 55.37191617 52.5159781 55.94583068 53.08894535 C57.07740506 54.21860141 58.2089929 55.34824397 59.34059407 56.47787319 C69.95490981 67.07507313 80.55074553 77.69059759 91.14037599 88.31245731 C100.23034226 97.42923074 109.33592534 106.53015785 118.453125 115.61969376 C129.03656296 126.17103413 139.61021387 136.73202521 150.16839802 147.30864036 C151.29393533 148.43608899 152.41948519 149.56352508 153.54504776 150.69094849 C154.098864 151.24569038 154.65268024 151.80043227 155.22327878 152.37198452 C159.12966711 156.28355686 163.04298188 160.18811639 166.95901108 164.09003448 C171.73015312 168.84436161 176.49048288 173.60920432 181.23720722 178.38791509 C183.66010948 180.82660367 186.08759347 183.26021554 188.5282917 185.68110466 C191.1694942 188.30599181 193.79164242 190.94852673 196.40963745 193.59653091 C197.18762534 194.36113447 197.96561323 195.12573803 198.76717651 195.9135114 C201.63647513 198.8472707 203.70166638 201.00549297 204.94879532 204.94879532 C203.40462079 209.83132741 200.0078931 212.76470766 196.40963745 216.30105972 C195.59307682 217.1269803 194.77651619 217.95290087 193.9352113 218.80384934 C191.66580576 221.0930634 189.38339858 223.36831929 187.09481335 225.63832998 C184.62990209 228.08968153 182.18230125 230.55821288 179.73243713 233.02458572 C174.93044891 237.85327602 170.11235236 242.66557769 165.28831606 247.47223096 C161.36858696 251.37841846 157.45474288 255.29041233 153.54504776 259.20664215 C152.98893249 259.76367682 152.43281722 260.32071149 151.85984997 260.894626 C150.73019391 262.02620038 149.60055135 263.15778822 148.47092213 264.28938939 C137.87372219 274.90370513 127.25819773 285.49954085 116.63633801 296.08917131 C107.51956458 305.17913758 98.41863746 314.28472066 89.32910156 323.40192032 C78.77776119 333.98535828 68.21677011 344.55900919 57.64015496 355.11719334 C56.51270633 356.24273064 55.38527024 357.36828051 54.25784683 358.49384308 C53.70310494 359.04765932 53.14836305 359.60147555 52.5768108 360.1720741 C48.66523846 364.07846243 44.76067893 367.9917772 40.85876083 371.9078064 C36.10443371 376.67894844 31.339591 381.4392782 26.56088023 386.18600254 C24.12219165 388.6089048 21.68857978 391.03638879 19.26769066 393.47708702 C16.64280351 396.11828952 14.00026859 398.74043773 11.3522644 401.35843277 C10.58766085 402.13642066 9.82305729 402.91440855 9.03528392 403.71597183 C6.10152462 406.58527045 3.94330235 408.6504617 0 409.89759064 C-4.88253209 408.35341611 -7.81591234 404.95668842 -11.3522644 401.35843277 C-12.17818498 400.54187214 -13.00410555 399.72531151 -13.85505402 398.88400662 C-16.14426808 396.61460108 -18.41952397 394.3321939 -20.68953466 392.04360867 C-23.14088621 389.57869741 -25.60941756 387.13109657 -28.07579041 384.68123245 C-32.9044807 379.87924423 -37.71678237 375.06114768 -42.52343564 370.23711137 C-46.42962314 366.31738228 -50.34161701 362.4035382 -54.25784683 358.49384308 C-54.8148815 357.93772781 -55.37191617 357.38161254 -55.94583068 356.80864529 C-57.07740506 355.67898923 -58.2089929 354.54934666 -59.34059407 353.41971745 C-69.95490981 342.82251751 -80.55074553 332.20699305 -91.14037599 321.58513333 C-100.23034226 312.4683599 -109.33592534 303.36743278 -118.453125 294.27789688 C-129.03656296 283.72655651 -139.61021387 273.16556542 -150.16839802 262.58895028 C-151.29393533 261.46150165 -152.41948519 260.33406556 -153.54504776 259.20664215 C-154.37577212 258.37452931 -154.37577212 258.37452931 -155.22327878 257.52560612 C-159.12966711 253.61403378 -163.04298188 249.70947425 -166.95901108 245.80755615 C-171.73015312 241.05322902 -176.49048288 236.28838632 -181.23720722 231.50967555 C-183.66010948 229.07098697 -186.08759347 226.6373751 -188.5282917 224.21648598 C-191.1694942 221.59159883 -193.79164242 218.9490639 -196.40963745 216.30105972 C-197.18762534 215.53645616 -197.96561323 214.77185261 -198.76717651 213.98407924 C-201.63647513 211.05031994 -203.70166638 208.89209766 -204.94879532 204.94879532 C-203.40462079 200.06626323 -200.0078931 197.13288298 -196.40963745 193.59653091 C-195.59307682 192.77061034 -194.77651619 191.94468977 -193.9352113 191.0937413 C-191.66580576 188.80452724 -189.38339858 186.52927135 -187.09481335 184.25926065 C-184.62990209 181.80790911 -182.18230125 179.33937776 -179.73243713 176.87300491 C-174.93044891 172.04431462 -170.11235236 167.23201295 -165.28831606 162.42535968 C-161.36858696 158.51917218 -157.45474288 154.60717831 -153.54504776 150.69094849 C-152.98893249 150.13391382 -152.43281722 149.57687915 -151.85984997 149.00296464 C-150.73019391 147.87139026 -149.60055135 146.73980242 -148.47092213 145.60820125 C-137.87372219 134.99388551 -127.25819773 124.39804979 -116.63633801 113.80841933 C-107.51956458 104.71845306 -98.41863746 95.61286998 -89.32910156 86.49567032 C-78.77776119 75.91223236 -68.21677011 65.33858145 -57.64015496 54.7803973 C-56.51270633 53.65485999 -55.38527024 52.52931013 -54.25784683 51.40374756 C-53.425734 50.5730232 -53.425734 50.5730232 -52.5768108 49.72551654 C-48.66523846 45.81912821 -44.76067893 41.90581344 -40.85876083 37.98978424 C-36.10443371 33.21864219 -31.339591 28.45831244 -26.56088023 23.7115881 C-24.12219165 21.28868584 -21.68857978 18.86120185 -19.26769066 16.42050362 C-16.64280351 13.77930112 -14.00026859 11.1571529 -11.3522644 8.53915787 C-10.58766085 7.76116998 -9.82305729 6.98318209 -9.03528392 6.18161881 C-6.10152462 3.31232019 -3.94330235 1.24712894 0 0 Z " fill="#3350B9" transform="translate(214,9.051204681396484)"/>
<path d="M0 0 C64.02 0 128.04 0 194 0 C194 11.88 194 23.76 194 36 C189.71 36.66 185.42 37.32 181 38 C177.80482094 39.82624046 177.80482094 39.82624046 175.8125 42.375 C175.11769531 43.14585937 174.42289063 43.91671875 173.70703125 44.7109375 C169.16916124 50.79604465 169.13400651 56.5453138 170 64 C171.18873804 67.15806371 172.82350745 69.44524003 175 72 C175.39960938 72.57621094 175.79921875 73.15242188 176.2109375 73.74609375 C181.17656445 80.02084053 185.09621812 78.6301874 194 80 C194 92.21 194 104.42 194 117 C168.8531953 117.02254448 143.70639875 117.04097768 118.55958652 117.05181217 C106.88436586 117.05697577 95.20915191 117.06401969 83.53393555 117.07543945 C73.36177327 117.08538434 63.18961585 117.09185296 53.01744884 117.09408849 C47.6278075 117.09539594 42.23818006 117.09848388 36.84854317 117.10573006 C31.78188566 117.11248719 26.71524786 117.11461759 21.64858627 117.11310768 C19.78327642 117.11338415 17.91796596 117.11539108 16.05265999 117.11920547 C13.51750892 117.12413794 10.98243349 117.12299996 8.44728088 117.12025452 C7.6992407 117.12316736 6.95120052 117.1260802 6.18049246 117.12908131 C1.11412121 117.11412121 1.11412121 117.11412121 0 116 C-0.08855161 113.3337397 -0.11524673 110.69352886 -0.09765625 108.02734375 C-0.0962413 107.22970108 -0.09482635 106.43205841 -0.09336853 105.61024475 C-0.08775316 103.05262565 -0.07519812 100.49509282 -0.0625 97.9375 C-0.05748698 96.20768355 -0.05292373 94.47786574 -0.04882812 92.74804688 C-0.03777875 88.49866447 -0.02050386 84.24934688 0 80 C0.88478027 79.89913086 1.76956055 79.79826172 2.68115234 79.69433594 C3.84598145 79.54254883 5.01081055 79.39076172 6.2109375 79.234375 C7.94029541 79.02119629 7.94029541 79.02119629 9.70458984 78.80371094 C15.04896292 77.50028257 17.81420856 74.30490279 21 70 C21.66 69.113125 22.32 68.22625 23 67.3125 C24.95031587 60.85207869 25.29965049 53.80724505 22.4375 47.625 C21.2309375 46.325625 21.2309375 46.325625 20 45 C19.32324219 44.09121094 19.32324219 44.09121094 18.6328125 43.1640625 C12.95880462 36.24798324 10.11970888 37.55687829 0 36 C0 24.12 0 12.24 0 0 Z " fill="#3451B9" transform="translate(117,156)"/>
<path d="M0 0 C64.02 0 128.04 0 194 0 C194 11.88 194 23.76 194 36 C189.71 36.66 185.42 37.32 181 38 C177.80482094 39.82624046 177.80482094 39.82624046 175.8125 42.375 C175.11769531 43.14585937 174.42289063 43.91671875 173.70703125 44.7109375 C169.16916124 50.79604465 169.13400651 56.5453138 170 64 C171.18873804 67.15806371 172.82350745 69.44524003 175 72 C175.39960938 72.57621094 175.79921875 73.15242188 176.2109375 73.74609375 C181.17656445 80.02084053 185.09621812 78.6301874 194 80 C194 92.21 194 104.42 194 117 C168.8531953 117.02254448 143.70639875 117.04097768 118.55958652 117.05181217 C106.88436586 117.05697577 95.20915191 117.06401969 83.53393555 117.07543945 C73.36177327 117.08538434 63.18961585 117.09185296 53.01744884 117.09408849 C47.6278075 117.09539594 42.23818006 117.09848388 36.84854317 117.10573006 C31.78188566 117.11248719 26.71524786 117.11461759 21.64858627 117.11310768 C19.78327642 117.11338415 17.91796596 117.11539108 16.05265999 117.11920547 C13.51750892 117.12413794 10.98243349 117.12299996 8.44728088 117.12025452 C7.6992407 117.12316736 6.95120052 117.1260802 6.18049246 117.12908131 C1.11412121 117.11412121 1.11412121 117.11412121 0 116 C-0.08855161 113.3337397 -0.11524673 110.69352886 -0.09765625 108.02734375 C-0.0962413 107.22970108 -0.09482635 106.43205841 -0.09336853 105.61024475 C-0.08775316 103.05262565 -0.07519812 100.49509282 -0.0625 97.9375 C-0.05748698 96.20768355 -0.05292373 94.47786574 -0.04882812 92.74804688 C-0.03777875 88.49866447 -0.02050386 84.24934688 0 80 C0.88478027 79.89913086 1.76956055 79.79826172 2.68115234 79.69433594 C3.84598145 79.54254883 5.01081055 79.39076172 6.2109375 79.234375 C7.94029541 79.02119629 7.94029541 79.02119629 9.70458984 78.80371094 C15.04896292 77.50028257 17.81420856 74.30490279 21 70 C21.66 69.113125 22.32 68.22625 23 67.3125 C24.95031587 60.85207869 25.29965049 53.80724505 22.4375 47.625 C21.2309375 46.325625 21.2309375 46.325625 20 45 C19.32324219 44.09121094 19.32324219 44.09121094 18.6328125 43.1640625 C12.95880462 36.24798324 10.11970888 37.55687829 0 36 C0 24.12 0 12.24 0 0 Z M8 7 C7.37854799 14.45742409 6.85201809 21.56801987 7 29 C8.2375 29.0825 9.475 29.165 10.75 29.25 C18.20849609 30.90744357 23.54564801 37.09418835 28 43 C32.0119712 50.08123879 31.97460003 59.0991163 31 67 C28.65107527 73.84251988 22.37470944 79.40029548 17 84 C15.515 84.495 15.515 84.495 14 85 C14 85.66 14 86.32 14 87 C11.69 87 9.38 87 7 87 C7 94.59 7 102.18 7 110 C44.29 110 81.58 110 120 110 C120 104.72 120 99.44 120 94 C122.31 94 124.62 94 127 94 C127 99.28 127 104.56 127 110 C146.8 110 166.6 110 187 110 C187 102.74 187 95.48 187 88 C184.03 87.01 181.06 86.02 178 85 C175.59870369 83.08724329 173.67814114 81.39667987 171.625 79.1875 C171.11839844 78.67896484 170.61179687 78.17042969 170.08984375 77.64648438 C165.01551945 72.39236118 162.57437713 67.70843661 162.625 60.25 C162.76479248 53.95933833 162.95918729 46.22842069 167.51953125 41.38671875 C168.25236328 40.70029297 168.25236328 40.70029297 169 40 C169.45375 39.175 169.9075 38.35 170.375 37.5 C173.64008661 32.47678983 178.4220095 31.44614569 184 30 C184.99 29.67 185.98 29.34 187 29 C187.14798191 21.56801987 186.62145201 14.45742409 186 7 C166.53 7 147.06 7 127 7 C127 11.95 127 16.9 127 22 C124.69 22 122.38 22 120 22 C120 17.05 120 12.1 120 7 C83.04 7 46.08 7 8 7 Z " fill="#EBEDF7" transform="translate(117,156)"/>
<path d="M0 0 C2.31 0 4.62 0 7 0 C7 6.27 7 12.54 7 19 C4.69 19 2.38 19 0 19 C0 12.73 0 6.46 0 0 Z " fill="#EBEDF7" transform="translate(237,221)"/>
<path d="M0 0 C2.31 0 4.62 0 7 0 C7 6.27 7 12.54 7 19 C4.69 19 2.38 19 0 19 C0 12.73 0 6.46 0 0 Z " fill="#EBEEF7" transform="translate(237,188)"/>
<path d="M0 0 C0.66 0.33 1.32 0.66 2 1 C-2.62 5.62 -7.24 10.24 -12 15 C-12 10.29114297 -9.04724208 7.42635906 -6 4 C-3.1875 2.0625 -3.1875 2.0625 -1 1 C-0.67 0.67 -0.34 0.34 0 0 Z " fill="#C9D0EC" transform="translate(295,186)"/>
<path d="M0 0 C3.81936528 1.55603771 6.26044438 3.95604931 9 7 C9 7.66 9 8.32 9 9 C5.18063472 7.44396229 2.73955562 5.04395069 0 2 C0 1.34 0 0.68 0 0 Z " fill="#2248BA" transform="translate(129,194)"/>
</svg>
